<?xml version="1.0" encoding="UTF-8"?>
<svg version="1.1" xmlns="http://www.w3.org/2000/svg" width="87" height="118">
<path d="M0 0 C28.71 0 57.42 0 87 0 C87 38.94 87 77.88 87 118 C58.29 118 29.58 118 0 118 C0 79.06 0 40.12 0 0 Z " fill="#013238" transform="translate(0,0)"/>
<path d="M0 0 C6.56521197 -0.17350127 13.12907976 -0.30028643 19.69604492 -0.38452148 C21.92805232 -0.41964699 24.15989953 -0.46735957 26.39135742 -0.52807617 C29.60635942 -0.61334144 32.81922694 -0.65276794 36.03515625 -0.68359375 C37.02709488 -0.71972275 38.01903351 -0.75585175 39.04103088 -0.79307556 C43.96884188 -0.79584597 47.30726205 -0.39659923 51.14257812 2.85742188 C55.08182909 7.50037656 54.89681546 12.1107414 54.68359375 17.96484375 C54.67368912 18.99815323 54.66378448 20.03146271 54.65357971 21.09608459 C54.61457152 24.37803508 54.52677208 27.65657043 54.4375 30.9375 C54.40236873 33.16987338 54.37043292 35.40229948 54.34179688 37.63476562 C54.26485316 43.09114818 54.14416139 48.54499628 54 54 C49.71 54 45.42 54 41 54 C40.67 44.1 40.34 34.2 40 24 C24.82 39.18 9.64 54.36 -6 70 C-13 64 -13 64 -16 61 C-14.6068597 57.74698204 -13.05039845 55.96613784 -10.3125 53.75 C-7.61957526 51.56975632 -5.33246418 49.27037026 -3.09375 46.640625 C1.96694243 40.7705203 7.47610644 35.33786346 12.95385742 29.86083984 C14.83085469 27.98162361 16.69966889 26.09450377 18.56835938 24.20703125 C19.7599284 23.01253356 20.95196829 21.81850536 22.14453125 20.625 C22.70284134 20.05950439 23.26115143 19.49400879 23.83638 18.91137695 C27.77113553 15 27.77113553 15 30 15 C30 14.34 30 13.68 30 13 C20.1 13 10.2 13 0 13 C0 8.71 0 4.42 0 0 Z " fill="#AFC8BA" transform="translate(19,41)"/>
<path d="M0 0 C3.58552881 1.63687185 4.79315055 2.68972583 7 6 C7.08203125 8.15625 7.08203125 8.15625 6.8125 10.5 C6.73644531 11.2734375 6.66039063 12.046875 6.58203125 12.84375 C5.89032726 15.40630437 5.0747904 16.3758204 3 18 C-0.73337473 19.24445824 -4.12790345 19.64032725 -8 19 C-11.13836313 16.97314048 -12.65870267 15.54702808 -13.4765625 11.83984375 C-13.74267565 7.64506019 -13.33198013 5.50834457 -11 1.9375 C-7.15190096 -0.54773063 -4.45891518 -0.8394314 0 0 Z " fill="#F3F5F6" transform="translate(66,14)"/>
</svg>
