<?xml version="1.0" encoding="UTF-8"?>
<svg version="1.1" xmlns="http://www.w3.org/2000/svg" width="2189" height="885">
<path d="M0 0 C1.79745346 0.00747812 3.59491517 0.01316361 5.39237976 0.01715088 C10.07945021 0.03228373 14.76600966 0.07145596 19.45288086 0.1159668 C25.09981479 0.164461 30.74692142 0.18251246 36.39400482 0.20578003 C44.9335961 0.24431699 53.47207044 0.32105556 62.01171875 0.390625 C62.01171875 15.900625 62.01171875 31.410625 62.01171875 47.390625 C58.19480469 47.42800781 54.37789062 47.46539062 50.4453125 47.50390625 C46.73846792 47.55015008 43.03172316 47.60137354 39.32495117 47.65307617 C36.75372409 47.68627942 34.18242493 47.71432558 31.61108398 47.73706055 C27.90968177 47.77069014 24.20893735 47.8230127 20.5078125 47.87890625 C18.79022987 47.88849113 18.79022987 47.88849113 17.03794861 47.89826965 C10.96047762 48.00959607 6.33822348 48.35483368 1.01171875 51.390625 C-9.85235507 65.15178517 -3.94035433 108.04220575 -3.98828125 110.390625 C44.52171875 110.390625 93.03171875 110.390625 143.01171875 110.390625 C143.01171875 81.680625 143.01171875 52.970625 143.01171875 23.390625 C161.82171875 23.390625 180.63171875 23.390625 200.01171875 23.390625 C200.01171875 52.100625 200.01171875 80.810625 200.01171875 110.390625 C225.75171875 110.390625 251.49171875 110.390625 278.01171875 110.390625 C278.01171875 126.230625 278.01171875 142.070625 278.01171875 158.390625 C252.27171875 158.390625 226.53171875 158.390625 200.01171875 158.390625 C200.07311005 186.85946931 200.07311005 186.85946931 200.171875 215.328125 C200.22045032 226.93587065 200.26488004 238.54352816 200.28271484 250.15136719 C200.29572212 258.60493407 200.32266314 267.05832209 200.36633182 275.51178825 C200.38896745 279.98781201 200.40462817 284.463615 200.4036026 288.93970108 C200.40285723 293.15378782 200.42075842 297.36738614 200.45288658 301.58134651 C200.46139688 303.12685862 200.46312781 304.67242545 200.45752144 306.21795082 C200.45087648 308.33150833 200.46881036 310.443514 200.49273682 312.55691528 C200.49642399 313.73865389 200.50011116 314.92039249 200.50391006 316.13794136 C201.12008225 320.08472926 202.5650105 322.27131265 205.01171875 325.390625 C208.21490258 327.70973427 211.17857783 327.66128854 215.06542969 327.70947266 C216.28639343 327.72934235 217.50735718 327.74921204 218.76531982 327.76968384 C220.07897522 327.78123505 221.39263062 327.79278625 222.74609375 327.8046875 C224.10802375 327.82340446 225.46994223 327.84297828 226.83184814 327.8633728 C230.40904942 327.9146445 233.98628827 327.95429652 237.56365967 327.99151611 C241.21701274 328.03158704 244.87021264 328.08255917 248.5234375 328.1328125 C255.68613948 328.23054124 262.84872001 328.31009424 270.01171875 328.390625 C270.01171875 344.230625 270.01171875 360.070625 270.01171875 376.390625 C250.64807691 376.51095143 250.64807691 376.51095143 242.30664062 376.53710938 C236.64533914 376.5549477 230.9841851 376.5759033 225.32299805 376.61694336 C220.75179506 376.64986914 216.18075049 376.66754699 211.60943794 376.67525673 C209.87738112 376.6807413 208.14533161 376.69144856 206.41334343 376.70781517 C187.77815 376.87668617 171.39502661 375.17221004 157.26953125 361.77734375 C143.60263733 347.33016004 142.69378013 329.30956174 142.78466797 310.40112305 C142.78523343 308.73420214 142.7849129 307.06728073 142.78378296 305.40036011 C142.7832137 300.91569111 142.79489826 296.43113107 142.80893087 291.94648719 C142.82150999 287.24467011 142.82261436 282.54284999 142.82498169 277.84101868 C142.83117549 268.95556157 142.84755763 260.0701542 142.86768067 251.18471891 C142.89430581 239.16502198 142.9050293 227.14531126 142.9166851 215.12559223 C142.93543993 196.21389929 142.97529954 177.30231128 143.01171875 158.390625 C94.50171875 158.390625 45.99171875 158.390625 -3.98828125 158.390625 C-3.98828125 230.330625 -3.98828125 302.270625 -3.98828125 376.390625 C-22.46828125 376.390625 -40.94828125 376.390625 -59.98828125 376.390625 C-59.98828125 304.450625 -59.98828125 232.510625 -59.98828125 158.390625 C-84.40828125 158.390625 -108.82828125 158.390625 -133.98828125 158.390625 C-133.98828125 142.550625 -133.98828125 126.710625 -133.98828125 110.390625 C-109.56828125 110.390625 -85.14828125 110.390625 -59.98828125 110.390625 C-60.1065627 89.95861788 -60.1065627 89.95861788 -60.25854492 69.52685547 C-60.26731893 66.93717828 -60.27496069 64.34749691 -60.28125 61.7578125 C-60.30427185 59.7924353 -60.30427185 59.7924353 -60.32775879 57.78735352 C-60.33238378 41.23296935 -56.9870797 25.70470975 -45.23828125 13.421875 C-31.86804892 1.35152637 -17.1684357 -0.21219875 0 0 Z " fill="#B5CDBF" transform="translate(1069.98828125,36.609375)"/>
<path d="M0 0 C0.8353125 0.68964844 1.670625 1.37929687 2.53125 2.08984375 C9.34755043 7.90684088 15.9497566 14.89951319 20 23 C22.64 23.33 25.28 23.66 28 24 C28 11.13 28 -1.74 28 -15 C45.82 -15 63.64 -15 82 -15 C82.09049074 26.92912151 82.16207367 68.85821728 82.20426132 110.78741685 C82.20926394 115.74141609 82.21444125 120.69541512 82.21972656 125.64941406 C82.2207758 126.63563521 82.22182505 127.62185635 82.22290608 128.63796298 C82.24029495 144.59115634 82.27182427 160.54429183 82.30861118 176.4974509 C82.34606287 192.87591463 82.36824479 209.25434812 82.37635398 225.63285291 C82.38183299 235.73322671 82.39911639 245.83343695 82.43166587 255.93376039 C82.45286597 262.86691883 82.45918764 269.79999314 82.45400551 276.73318161 C82.45145226 280.72885383 82.4552705 284.72424091 82.4768219 288.71986198 C82.49645607 292.38704945 82.49716246 296.05376322 82.48359558 299.72097366 C82.48113643 301.65719851 82.49823666 303.59341877 82.51632524 305.52956069 C82.41431061 320.65562196 77.98926077 333.56650136 67.75 344.8125 C57.15448155 354.71907219 43.16756872 358.17836408 29.05897522 358.12025452 C27.90456732 358.12153615 27.90456732 358.12153615 26.72683805 358.12284368 C24.16430342 358.12448252 21.60183518 358.11900341 19.03930664 358.11352539 C17.19593304 358.11324315 15.35255933 358.11340198 13.50918579 358.1139679 C8.51594802 358.11425442 3.52273434 358.10838103 -1.47049785 358.10139394 C-6.69286015 358.09513636 -11.91522303 358.0945547 -17.1375885 358.09336853 C-27.02195717 358.09026231 -36.90631476 358.08205847 -46.79067856 358.07201904 C-58.04576431 358.0608359 -69.30085059 358.0553419 -80.55594051 358.05032361 C-103.70396789 358.03987527 -126.85198009 358.02153859 -150 358 C-150 341.83 -150 325.66 -150 309 C-142.61077148 308.97812622 -142.61077148 308.97812622 -135.07226562 308.95581055 C-118.8033347 308.90549251 -102.53449921 308.83905245 -86.26566315 308.76428509 C-76.40107797 308.71934418 -66.53652877 308.67992555 -56.671875 308.65356445 C-48.07255274 308.6305706 -39.47334445 308.59715701 -30.87411261 308.55129844 C-26.32204854 308.52738497 -21.77009722 308.50864389 -17.2179718 308.50238609 C-12.93008216 308.49632676 -8.64248094 308.4762963 -4.35469818 308.44572449 C-2.78422297 308.43695785 -1.21371004 308.43321883 0.35678864 308.43499184 C11.53724591 308.52613725 11.53724591 308.52613725 22 305 C26.41820149 299.58414011 26.15623524 293.24305175 26.20532227 286.5378418 C26.21522186 285.6983046 26.22512146 284.8587674 26.23532104 283.99378967 C26.26681598 281.22896103 26.29164585 278.46411522 26.31640625 275.69921875 C26.33698615 273.77821923 26.3579829 271.85722412 26.37937927 269.93623352 C26.43449292 264.88764027 26.48394932 259.83900687 26.53222656 254.79034424 C26.58251987 249.63558391 26.63816503 244.48088165 26.69335938 239.32617188 C26.80080995 229.21749757 26.90228388 219.10877277 27 209 C25.72350586 209.12205811 24.44701172 209.24411621 23.13183594 209.36987305 C22.41380798 209.43853073 21.69578003 209.50718842 20.95599365 209.57792664 C18.75449646 209.86991515 18.75449646 209.86991515 16.890625 212.08203125 C16.34921875 212.98308594 15.8078125 213.88414062 15.25 214.8125 C2.81804336 233.46043496 -15.70107844 244.9641413 -37.4375 249.8125 C-57.5928739 253.81446955 -82.06833683 254.47550372 -102 249 C-102.71043457 248.80664062 -103.42086914 248.61328125 -104.15283203 248.4140625 C-134.46609638 239.91611948 -160.18135076 220.44796081 -175.75 193.0625 C-181.4117501 182.7371236 -185.82954379 172.47093888 -188.75 161.0625 C-188.94883789 160.28874023 -189.14767578 159.51498047 -189.35253906 158.71777344 C-192.56354144 145.35053025 -193.3499131 132.13171194 -193.31567383 118.44995117 C-193.31252436 115.83274176 -193.33603887 113.21667944 -193.36132812 110.59960938 C-193.50420973 72.48929101 -181.66584504 38.6891775 -155 11 C-115.78028678 -27.19816448 -42.98804236 -36.93434652 0 0 Z M-117 53 C-131.44690697 69.74609501 -136.18462204 90.5704899 -136.24023438 112.1550293 C-136.24983942 114.39996865 -136.28085984 116.64395072 -136.3125 118.88867188 C-136.48754348 142.62325968 -129.32746936 163.99976251 -112.75390625 181.3515625 C-96.08774329 197.27883154 -74.79832437 203.52520466 -52.13598633 203.35327148 C-29.11080147 202.79703055 -8.73646119 194.00318859 7.4140625 177.5390625 C26.61165477 155.57068371 28.3212828 127.90933105 27 100 C25.48537705 83.52652354 20.10004966 67.47780759 9 55 C8.54238281 54.401875 8.08476563 53.80375 7.61328125 53.1875 C-3.37827063 39.07800074 -22.08962912 31.55705347 -39.1875 28.4140625 C-68.32725409 25.24929413 -95.9931797 31.56102396 -117 53 Z " fill="#B5CDBF" transform="translate(1987,162)"/>
<path d="M0 0 C20.16678725 17.81154202 32.45221155 43.58216698 34.15582275 70.45825195 C34.35652953 76.32852835 34.27518182 82.19040437 34.1875 88.0625 C34.125625 93.981875 34.06375 99.90125 34 106 C14.86 106 -4.28 106 -24 106 C-24.103125 101.359375 -24.20625 96.71875 -24.3125 91.9375 C-24.92263348 72.53463285 -26.86643108 54.08951255 -40.875 39.375 C-61.22643785 20.85395061 -88.77623474 18.83570488 -115 20 C-132.07052241 21.43755153 -150.35241056 26.98844088 -162.37109375 39.7890625 C-171.51274921 52.1971608 -173.94826184 64.91671012 -173 80 C-171.35571235 90.40525778 -166.49657621 100.49781863 -158.2578125 107.24609375 C-141.95236262 118.65177627 -123.23933344 124.16874756 -104.0838623 128.82278442 C-101.74084322 129.39242126 -99.4000463 129.97054524 -97.05957031 130.55053711 C-89.80514886 132.3454213 -82.54425635 134.11190544 -75.27734375 135.85546875 C-53.78507409 141.04832057 -32.91531187 147.28008654 -13 157 C-11.82050781 157.57492188 -10.64101563 158.14984375 -9.42578125 158.7421875 C12.60239697 170.05606839 31.13834092 188.13646005 39 212 C46.93648308 240.64470155 44.88031917 273.01691707 30.3125 299.25 C25.95619819 306.50215761 20.68744748 312.76104246 15 319 C14.41734375 319.66515625 13.8346875 320.3303125 13.234375 321.015625 C-8.80226968 344.83300865 -45.52438074 356.06929628 -77 358 C-82.91709559 358.18885529 -88.830131 358.24563049 -94.75 358.25 C-95.9828775 358.25101212 -95.9828775 358.25101212 -97.24066162 358.25204468 C-140.20987795 358.19611832 -179.36831735 346.5346261 -210.3046875 315.703125 C-237.24536622 287.17770048 -241 251.92925024 -241 214 C-221.86 214 -202.72 214 -183 214 C-182.7525 218.455 -182.505 222.91 -182.25 227.5 C-180.88052196 248.88291099 -176.6318096 269.73039539 -160.35546875 285.09375 C-141.5747989 300.29270006 -119.76455238 305.22628127 -96.125 305.25 C-95.43191742 305.25100708 -94.73883484 305.25201416 -94.02474976 305.25305176 C-70.46800192 305.22988309 -47.54892724 300.8750053 -30 284 C-20.50846914 273.09635814 -15.37830611 258.76589852 -15.81640625 244.30859375 C-16.84724603 231.34633181 -21.18460333 220.797268 -31 212 C-53.96067143 195.02094175 -85.63231677 189.88482078 -112.8034668 183.27587891 C-134.45694559 177.9918777 -156.21955763 172.04700234 -176.25 162.0625 C-177.79433716 161.30356445 -177.79433716 161.30356445 -179.36987305 160.52929688 C-200.59068207 149.85611881 -218.42632133 133.94647645 -226.9375 111.25 C-227.288125 110.1775 -227.63875 109.105 -228 108 C-228.391875 106.80375 -228.78375 105.6075 -229.1875 104.375 C-234.85720808 84.70977467 -234.51833898 59.39131438 -228 40 C-227.67854004 39.01459229 -227.67854004 39.01459229 -227.35058594 38.00927734 C-222.72285268 24.23048785 -214.96776711 13.42890936 -205 3 C-204.39929688 2.32453125 -203.79859375 1.6490625 -203.1796875 0.953125 C-155.25533026 -50.91306249 -50.38301451 -42.92872439 0 0 Z " fill="#B5CDBF" transform="translate(270,62)"/>
<path d="M0 0 C171.75916839 0 171.75916839 0 186.5625 4.1875 C187.34004639 4.40180664 188.11759277 4.61611328 188.91870117 4.83691406 C217.87631805 13.13483082 241.96267989 30.45572981 256.91308594 56.97119141 C271.27725715 83.78302041 273.83029293 121.81052528 266 151 C265.70198486 152.1130249 265.70198486 152.1130249 265.39794922 153.24853516 C261.32894515 167.81465534 254.86489544 180.44156028 245 192 C244.35804688 192.78632812 243.71609375 193.57265625 243.0546875 194.3828125 C223.96790175 216.85028355 195.04719341 229.37684581 166 232 C162.42242147 232.13223828 158.84920726 232.1267543 155.26953125 232.11352539 C154.2079631 232.11364593 153.14639496 232.11376646 152.05265808 232.11389065 C148.63925024 232.11314826 145.22589799 232.10555087 141.8125 232.09765625 C139.69596381 232.09618474 137.57942725 232.09516532 135.46289062 232.09460449 C127.64192151 232.08937582 119.8209602 232.07541455 112 232.0625 C94.51 232.041875 77.02 232.02125 59 232 C59 279.52 59 327.04 59 376 C39.53 376 20.06 376 0 376 C0 251.92 0 127.84 0 0 Z M59 54 C59 95.25 59 136.5 59 179 C73.829375 179.061875 88.65875 179.12375 103.9375 179.1875 C108.58577881 179.21481201 113.23405762 179.24212402 118.02319336 179.27026367 C122.26208929 179.2803091 122.26208929 179.2803091 126.50099182 179.28633118 C128.3602668 179.29087861 130.21953405 179.3013033 132.07875061 179.31672668 C156.17198855 179.50625905 177.41181627 176.69696915 195.8125 159.625 C209.77541816 144.82697908 210.59422359 126.11839314 210.12744141 106.93164062 C209.55563226 93.77783932 203.99162262 81.36932644 194.9375 71.76953125 C180.91216014 58.96009787 164.09823307 53.80948314 145.39282227 53.88647461 C143.96420191 53.88629381 143.96420191 53.88629381 142.50672054 53.88610935 C139.44325816 53.88685194 136.37985766 53.89445026 133.31640625 53.90234375 C131.41727732 53.9038152 129.51814798 53.90483466 127.61901855 53.90539551 C120.60017283 53.91062491 113.5813358 53.92458617 106.5625 53.9375 C90.866875 53.958125 75.17125 53.97875 59 54 Z " fill="#B5CDBF" transform="translate(29,452)"/>
<path d="M0 0 C1.17134995 -0.00101212 1.17134995 -0.00101212 2.36636353 -0.00204468 C14.17020824 0.01415712 25.61551665 0.37828215 37.125 3.25 C37.80433594 3.41628906 38.48367188 3.58257813 39.18359375 3.75390625 C53.61089105 7.4357307 67.45087975 13.96648458 79.125 23.25 C79.94226563 23.89195312 80.75953125 24.53390625 81.6015625 25.1953125 C99.01064674 39.80169587 108.98181896 61.82577235 111.125 84.25 C111.2800033 88.32253921 111.28923281 92.39309572 111.29858398 96.46826172 C111.305271 97.68377716 111.31195801 98.8992926 111.31884766 100.15164185 C111.33286685 102.78434425 111.34520043 105.41699308 111.35479546 108.04970932 C111.37033536 112.21979582 111.39428398 116.38980845 111.41969299 120.55984497 C111.49066476 132.41403522 111.55062213 144.26826687 111.60180664 156.12255859 C111.63018722 162.67833784 111.66560578 169.23404259 111.70846039 175.78974354 C111.73509299 179.92771667 111.75308318 184.06560572 111.76449764 188.20364738 C111.77583648 191.39346462 111.79993864 194.58319103 111.82202148 197.77294922 C111.82261063 198.90778748 111.82319977 200.04262573 111.82380676 201.21185303 C111.89164718 208.62839256 112.78016905 215.21550715 115.125 222.25 C119.01353934 224.3652018 122.58563883 224.54851909 126.95703125 224.6640625 C128.12210205 224.69967285 129.28717285 224.7352832 130.48754883 224.77197266 C131.95603271 224.80597168 133.4245166 224.8399707 134.9375 224.875 C141.9603125 225.060625 141.9603125 225.060625 149.125 225.25 C149.125 240.76 149.125 256.27 149.125 272.25 C141.81437669 272.34231233 134.5058122 272.42180925 127.19506836 272.46972656 C124.71322744 272.4897219 122.23143291 272.51692726 119.74975586 272.55175781 C116.16248053 272.60080964 112.57583322 272.62309058 108.98828125 272.640625 C107.89606766 272.66127014 106.80385406 272.68191528 105.67854309 272.70318604 C92.84946834 272.70684221 82.38343921 269.31781353 73.19140625 260.3671875 C65.99817969 252.74027369 64.67248404 245.52004552 64.125 235.25 C61.15539685 235.06818756 59.77772195 235.03286875 57.125 236.25 C55.09987072 238.76551933 53.55674395 241.41231887 51.93359375 244.203125 C41.83090226 261.22277805 25.9523139 272.14923489 7.08984375 277.28515625 C-24.67687468 285.26323921 -60.56763084 280.78052219 -88.875 264.25 C-107.04996012 252.63575719 -117.69094943 236.74451258 -123.296875 216.015625 C-127.80312581 194.45869543 -124.95268637 171.77776358 -113.8125 152.75 C-106.89309265 142.36338419 -97.78734033 134.24715021 -86.875 128.25 C-85.96492188 127.72921875 -85.05484375 127.2084375 -84.1171875 126.671875 C-63.18636839 115.37949848 -39.54045038 113.77101677 -16.23828125 113.95703125 C-14.13551643 113.96264427 -12.03274761 113.96690627 -9.92997742 113.96989441 C-4.46386389 113.98120913 1.00200069 114.01055693 6.46801758 114.04400635 C12.0730452 114.07499991 17.67811405 114.08846157 23.28320312 114.10351562 C34.2305766 114.1354429 45.1777674 114.18647195 56.125 114.25 C56.00527903 109.90714375 55.86930017 105.56494028 55.73046875 101.22265625 C55.69691284 99.99824829 55.66335693 98.77384033 55.62878418 97.5123291 C55.14528048 82.96549459 51.78073427 70.31602423 40.9375 59.9375 C26.02918719 47.59272011 6.58755058 46.88088125 -11.875 48.25 C-26.95239345 50.14703639 -40.2954138 56.28358087 -49.875 68.25 C-55.02671532 75.59637249 -58.63727816 83.33802229 -60.98828125 92.01953125 C-61.28089844 92.75558594 -61.57351563 93.49164062 -61.875 94.25 C-65.39877964 95.42459321 -66.34895203 95.01790979 -69.80541992 93.89477539 C-70.80623093 93.57436783 -71.80704193 93.25396027 -72.83818054 92.92384338 C-73.91638565 92.56870163 -74.99459076 92.21355988 -76.10546875 91.84765625 C-77.21102615 91.49110458 -78.31658356 91.13455292 -79.4556427 90.76719666 C-82.99401159 89.62392751 -86.52823045 88.46837229 -90.0625 87.3125 C-92.45741956 86.53629827 -94.85259881 85.76089728 -97.24804688 84.98632812 C-103.12674525 83.08350781 -109.00208108 81.1705791 -114.875 79.25 C-114.20438554 74.02848129 -113.07123078 69.55149296 -110.9375 64.75 C-110.47778809 63.71504395 -110.47778809 63.71504395 -110.00878906 62.65917969 C-97.61824953 35.8109721 -75.18969145 16.97170437 -47.8125 6.53125 C-32.17513009 1.19088032 -16.39272712 0.01270771 0 0 Z M-61.3125 172.625 C-67.426168 180.03289208 -69.06434142 187.6882582 -68.875 197.25 C-67.35101909 208.24443369 -62.6909974 217.37158445 -53.875 224.25 C-42.38990337 231.34079879 -30.56089804 233.81504743 -17.1875 233.6875 C-16.0540918 233.67920166 -14.92068359 233.67090332 -13.75292969 233.66235352 C7.96603488 233.22877657 26.04078532 225.8931184 41.3125 210.125 C51.65418822 197.90300483 56.50193112 182.07101839 56.22265625 166.23828125 C56.21560669 165.46440063 56.20855713 164.69052002 56.20129395 163.89318848 C56.18312914 162.01204145 56.15511624 160.13099365 56.125 158.25 C44.91035765 158.1568303 33.69580919 158.08599853 22.4808569 158.04275131 C17.27184702 158.02198232 12.06310426 157.99386271 6.85424805 157.94824219 C1.81619753 157.90439976 -3.221598 157.8807828 -8.25982475 157.87049103 C-10.17052658 157.86316793 -12.08121634 157.84887023 -13.99180794 157.82707977 C-31.62212643 157.63421977 -48.45612469 159.09319917 -61.3125 172.625 Z " fill="#B5CDBF" transform="translate(429.875,555.75)"/>
<path d="M0 0 C18.48 0 36.96 0 56 0 C56 48.84 56 97.68 56 148 C63.44144935 147.88193623 63.44144935 147.88193623 65.77734375 145.28515625 C66.35162109 144.18494141 66.35162109 144.18494141 66.9375 143.0625 C70.28580771 137.35495109 74.41541847 132.75086169 79 128 C79.59167969 127.3709375 80.18335938 126.741875 80.79296875 126.09375 C98.31842049 109.07123617 125.83392341 105.61245725 149.0480957 105.69726562 C177.84577075 106.26590058 202.91731488 116.31536141 223.484375 136.4296875 C244.41173058 158.43949251 251.36271549 187.12220688 251.22705078 216.72387695 C251.22648541 218.4696146 251.22680568 220.21535272 251.22793579 221.96109009 C251.22850539 226.66062617 251.2168153 231.36005842 251.20278788 236.05957055 C251.19021444 240.98560565 251.18910483 245.91164359 251.18673706 250.83769226 C251.18054162 260.14813987 251.1641572 269.45854005 251.14403808 278.76896685 C251.12161857 289.37607315 251.11067048 299.9831818 251.10064721 310.59030592 C251.07978909 332.39356957 251.04313726 354.19676826 251 376 C232.52 376 214.04 376 195 376 C194.9906543 371.00504395 194.98130859 366.01008789 194.97167969 360.86376953 C194.93783331 344.3154984 194.88244022 327.76735038 194.81609726 311.21917915 C194.77641538 301.19120161 194.74396806 291.16330132 194.72900391 281.13525391 C194.71593083 272.38712341 194.68882327 263.63916366 194.64538693 254.89112937 C194.62289841 250.26605491 194.60708167 245.64119004 194.60811615 241.01605606 C194.6088703 236.64763743 194.59062182 232.27967986 194.55883217 227.91138077 C194.55043097 226.32253123 194.54851518 224.73362935 194.55419731 223.14476776 C194.61212713 204.42858413 191.69661182 185.08809326 178.24609375 171.02734375 C165.09609278 159.15803852 146.92513207 154.28521259 129.42578125 154.8125 C108.91237894 156.39807699 90.12963874 162.25984013 76 178 C56.27407168 203.28477705 56.70241188 233.95807375 56.59528303 264.49902201 C56.57945376 268.43077621 56.55272889 272.36245754 56.5272522 276.29415894 C56.48080956 283.70963518 56.44390062 291.12512568 56.41057932 298.54067123 C56.37211112 306.99562869 56.32276734 315.45051234 56.27259517 323.90540719 C56.16978987 341.27022328 56.08180025 358.63507138 56 376 C37.52 376 19.04 376 0 376 C0 251.92 0 127.84 0 0 Z " fill="#B5CDBF" transform="translate(350,37)"/>
<path d="M0 0 C22.41985234 21.17646365 30.25012994 51.00527381 31.50390625 80.81640625 C31.65495716 86.37806024 31.6315046 91.94072054 31.61743164 97.50390625 C31.61714864 99.10230508 31.6173097 100.70070403 31.61787415 102.29910278 C31.61815773 106.58315439 31.61233288 110.86717723 31.60530019 115.15122223 C31.59899269 119.64882761 31.59845706 124.14643385 31.59727478 128.64404297 C31.59418306 137.13626535 31.58599917 145.62847465 31.57592529 154.1206913 C31.5646966 163.7992319 31.55923678 173.47777316 31.55422986 183.15631866 C31.54381444 203.04302342 31.52549623 222.92971027 31.50390625 242.81640625 C12.69390625 242.81640625 -6.11609375 242.81640625 -25.49609375 242.81640625 C-25.50543945 237.78592041 -25.51478516 232.75543457 -25.52441406 227.57250977 C-25.55825003 210.91247319 -25.61363712 194.25255905 -25.67999649 177.5926218 C-25.71969028 167.49623434 -25.75213162 157.39992372 -25.76708984 147.3034668 C-25.78015667 138.49638274 -25.80724864 129.68946847 -25.85070682 120.88248008 C-25.87320917 116.22557966 -25.88901123 111.56888778 -25.8879776 106.91192818 C-25.88722428 102.51478639 -25.90544032 98.11810359 -25.93726158 93.72108078 C-25.94567303 92.12052319 -25.94757129 90.51991358 -25.94189644 88.91934395 C-25.88530775 70.48058698 -29.03887429 51.72178271 -42.234375 37.84765625 C-55.64843659 25.80048522 -73.20385481 21.38276199 -90.89453125 21.6640625 C-110.79308883 22.82929335 -127.97848144 28.82831171 -142.49609375 42.81640625 C-160.98868104 64.12447395 -163.57716866 91.00227655 -163.70141602 118.05200195 C-163.71102545 119.42336298 -163.72103716 120.79472123 -163.73141479 122.16607666 C-163.75813861 125.84492361 -163.77932137 129.52378297 -163.79941678 133.20267129 C-163.82148026 137.06369983 -163.84876806 140.92469159 -163.87547302 144.78569031 C-163.92512758 152.07738479 -163.97016591 159.36909998 -164.01349539 166.66083449 C-164.06310255 174.97055477 -164.1179326 183.28023812 -164.17317498 191.58992255 C-164.28657617 208.66538411 -164.39281503 225.74088001 -164.49609375 242.81640625 C-182.97609375 242.81640625 -201.45609375 242.81640625 -220.49609375 242.81640625 C-220.49609375 155.03640625 -220.49609375 67.25640625 -220.49609375 -23.18359375 C-202.34609375 -23.18359375 -184.19609375 -23.18359375 -165.49609375 -23.18359375 C-165.49609375 -9.98359375 -165.49609375 3.21640625 -165.49609375 16.81640625 C-157.9243383 16.74095755 -157.9243383 16.74095755 -155.5 13.6640625 C-155.02433594 12.74496094 -154.54867188 11.82585937 -154.05859375 10.87890625 C-144.30778644 -6.08092489 -127.9996267 -18.02562857 -109.30859375 -23.43359375 C-70.55054263 -32.87717981 -30.45562007 -26.64270989 0 0 Z " fill="#B5CDBF" transform="translate(1721.49609375,170.18359375)"/>
<path d="M0 0 C0.78372986 -0.00067474 1.56745972 -0.00134949 2.37493896 -0.00204468 C14.21556299 0.01415793 25.63190571 0.4406124 37.1875 3.25 C38.23115723 3.49145752 38.23115723 3.49145752 39.29589844 3.73779297 C69.93606674 11.03674382 96.43907745 30.00463297 113.375 56.5625 C120.9595738 69.40734273 128.19290949 83.98221149 129.74658203 98.99072266 C129.87300583 100.19155991 129.87300583 100.19155991 130.00198364 101.41665649 C130.06320404 102.02165985 130.12442444 102.62666321 130.1875 103.25 C122.83773506 104.8208212 115.48697548 106.38692007 108.13549805 107.94970703 C105.63363748 108.4821422 103.13200844 109.01566645 100.63061523 109.55029297 C97.03950033 110.3176313 93.44757676 111.08107607 89.85546875 111.84375 C88.73351608 112.08436157 87.61156342 112.32497314 86.45561218 112.57287598 C85.41475967 112.79310425 84.37390717 113.01333252 83.30151367 113.24023438 C82.38440109 113.43564819 81.46728851 113.63106201 80.52238464 113.83239746 C78.1875 114.25 78.1875 114.25 75.1875 114.25 C74.7853125 112.47109375 74.7853125 112.47109375 74.375 110.65625 C69.5869478 90.48102479 61.6799455 72.65699177 43.5 61.1875 C24.73897766 50.21407184 1.6330495 48.40282257 -19.3515625 53.2734375 C-40.03695881 59.11017461 -56.65548829 70.42329992 -67.37060547 89.25415039 C-80.84320849 113.93368518 -82.10974667 145.32798977 -75.1875 172.3125 C-71.74024754 183.46461896 -66.37715466 194.32194828 -58.8125 203.25 C-58.090625 204.24 -57.36875 205.23 -56.625 206.25 C-44.76276806 220.1017835 -25.56841521 226.67845942 -8 229 C-6.60581552 229.10744655 -5.20955204 229.19049593 -3.8125 229.25 C-3.01328125 229.28996094 -2.2140625 229.32992187 -1.390625 229.37109375 C18.75572942 229.87773284 39.7520798 225.26565888 54.875 211.1875 C66.69832384 198.52883263 73.23043811 182.94602429 77.1875 166.25 C83.68537484 166.9246244 89.89989367 168.23873733 96.25 169.75390625 C97.28189453 169.9966478 98.31378906 170.23938934 99.37695312 170.48948669 C102.64807097 171.25992087 105.91778925 172.03611823 109.1875 172.8125 C111.4152744 173.33827289 113.64313811 173.8636675 115.87109375 174.38867188 C121.310937 175.67140564 126.74964517 176.9588643 132.1875 178.25 C127.98342541 194.69633978 127.98342541 194.69633978 125 201.6875 C124.70448242 202.38721924 124.40896484 203.08693848 124.10449219 203.80786133 C110.85874974 234.33676359 87.91325835 258.39592068 56.95117188 271.17285156 C20.1245098 285.36279477 -24.79163149 284.26327692 -60.9375 268.5625 C-75.00450967 262.16383204 -86.84486249 254.08898487 -97.8125 243.25 C-98.97652344 242.19425781 -98.97652344 242.19425781 -100.1640625 241.1171875 C-118.94313567 223.66525731 -129.49804313 198.058127 -133.8125 173.25 C-134.01875 172.0846875 -134.225 170.919375 -134.4375 169.71875 C-140.50799238 128.23705207 -134.72000592 85.05546276 -109.921875 50.625 C-88.21415556 22.16782158 -56.29982035 5.65698111 -21.10400391 0.73095703 C-14.10340626 -0.12937796 -7.04318179 0.00542902 0 0 Z " fill="#B5CDBF" transform="translate(721.8125,555.75)"/>
<path d="M0 0 C23.13335843 -0.61234437 46.26004126 -1.10842467 69.39947987 -1.39892864 C80.14649248 -1.53747297 90.88807148 -1.72587284 101.6315918 -2.03686523 C111.00931628 -2.30818975 120.38310507 -2.48066585 129.76464576 -2.54038936 C134.72300589 -2.57525361 139.67012201 -2.65548521 144.62482643 -2.85471153 C163.26833389 -3.572133 180.58921115 -3.72141875 195.21517634 9.32257533 C207.11730751 20.84170145 210.76653986 33.09399622 211.12410831 49.36102009 C211.15609712 55.01008878 210.96456667 60.6431061 210.73763633 66.28680205 C210.56623381 71.28644516 210.55279419 76.28676712 210.52095032 81.28889465 C210.4377614 90.71634019 210.2173005 100.13510483 209.9445141 109.5587638 C209.64034229 120.30522698 209.49369455 131.05215567 209.35873735 141.80186689 C209.07818383 163.87380113 208.58409468 185.93386814 208 208 C191.17 208 174.34 208 157 208 C156.67 169.39 156.34 130.78 156 91 C134.12947276 112.84138592 134.12947276 112.84138592 112.26367188 134.6875 C103.34611379 143.59912778 94.42804007 152.51023521 85.5065918 161.41796875 C79.00874589 167.90583046 72.51267467 174.39546301 66.0187059 180.8872056 C62.58189301 184.32271774 59.14421317 187.75735195 55.70440483 191.18986511 C52.46259878 194.42485197 49.22318218 197.66221282 45.98553276 200.90135956 C44.80089734 202.0857213 43.61541351 203.26923517 42.42898941 204.45180511 C36.93332369 209.93050174 31.50406872 215.41260283 26.45808315 221.31565094 C24.31628257 223.78981697 22.0235479 226.09599378 19.70727539 228.40625 C19.22832825 228.88534317 18.7493811 229.36443634 18.25592041 229.85804749 C16.70552945 231.40775355 15.15165074 232.95390825 13.59765625 234.5 C12.50884896 235.58693803 11.42026534 236.67410015 10.33189392 237.76147461 C7.49175111 240.59783223 4.6486164 243.43117164 1.80480957 246.26385498 C-1.10657891 249.16494253 -4.01507467 252.06892713 -6.92382812 254.97265625 C-12.6130867 260.65124818 -18.30551499 266.32664916 -24 272 C-27.18259851 270.59490901 -29.31348466 268.93078658 -31.75878906 266.46826172 C-32.83945648 265.38736771 -32.83945648 265.38736771 -33.94195557 264.28463745 C-34.70876648 263.50750397 -35.47557739 262.73037048 -36.265625 261.9296875 C-37.05902283 261.13345978 -37.85242065 260.33723206 -38.66986084 259.51687622 C-41.20130703 256.97424052 -43.72570803 254.42473652 -46.25 251.875 C-47.96568617 250.14928247 -49.68182662 248.42401645 -51.3984375 246.69921875 C-55.60424347 242.47136869 -59.80388119 238.23746203 -64 234 C-59.75459511 228.9313423 -55.31875575 224.17793622 -50.63479614 219.51454163 C-49.91504793 218.79393899 -49.19529972 218.07333635 -48.45374095 217.33089727 C-46.0563249 214.93184223 -43.6553673 212.5363642 -41.25439453 210.14086914 C-39.52917865 208.4159355 -37.80418326 206.69078129 -36.07939148 204.96542358 C-32.37319025 201.2589951 -28.66546684 197.55409672 -24.95633316 193.8506031 C-19.59364161 188.49606067 -14.23373445 183.1387381 -8.87448893 177.78074687 C-0.17804822 169.08649132 8.52062033 160.39446833 17.22070312 151.70385742 C25.66881913 143.26492939 34.11587179 134.82493931 42.56152344 126.38354492 C43.08797848 125.85735787 43.61443353 125.33117083 44.15684175 124.78903872 C48.73669222 120.2115013 53.31646253 115.63388369 57.89622498 111.0562582 C77.59426549 91.36761655 97.29756215 71.68424352 117 52 C59.085 51.505 59.085 51.505 0 51 C0 34.17 0 17.34 0 0 Z " fill="#FFFFFF" transform="translate(698,141)"/>
<path d="M0 0 C18.48 0 36.96 0 56 0 C56 28.71 56 57.42 56 87 C82.07 87 108.14 87 135 87 C135 102.84 135 118.68 135 135 C108.93 135 82.86 135 56 135 C56.09052186 163.2910907 56.09052186 163.2910907 56.20898438 191.58203125 C56.26349504 203.11733557 56.31490683 214.6525952 56.34643555 226.18798828 C56.36941085 234.5887942 56.40280367 242.98948309 56.44870156 251.3901962 C56.47264008 255.83823914 56.49136474 260.28616612 56.49761391 264.734272 C56.50366191 268.9220245 56.52365144 273.10948029 56.55427551 277.29712296 C56.56306029 278.83296142 56.5667774 280.36883866 56.56500816 281.90470123 C56.5633529 284.0048941 56.58007455 286.10418517 56.60127258 288.20425415 C56.60818603 289.96580054 56.60818603 289.96580054 56.61523914 291.76293373 C57.0531597 295.44724267 58.0642477 297.84830851 60 301 C66.2824904 305.07970065 73.3089353 304.47463046 80.58984375 304.51171875 C81.88950577 304.52966995 83.18916779 304.54762115 84.5282135 304.56611633 C87.96236184 304.61338717 91.39644554 304.64334372 94.83081055 304.66955566 C98.34371615 304.69947785 101.85640394 304.74580922 105.36914062 304.79101562 C112.24610962 304.87832288 119.12255925 304.93846165 126 305 C126 320.51 126 336.02 126 352 C105.05874499 352.16043524 105.05874499 352.16043524 96.06445312 352.1953125 C89.95078472 352.21913273 83.83735819 352.24717206 77.72387695 352.30175781 C72.78957676 352.34553429 67.8555363 352.36920365 62.92105675 352.37950897 C61.04777634 352.38684369 59.17450855 352.40116506 57.3013401 352.42292023 C40.67128772 352.60820861 26.5356057 350.68915533 13.71484375 338.8984375 C1.41133432 325.88201444 -0.45859356 310.74115141 -0.34057617 293.5949707 C-0.33972852 291.85938024 -0.34020774 290.1237887 -0.34190369 288.38819885 C-0.34275967 283.70708553 -0.32519864 279.02620577 -0.30418181 274.34514642 C-0.28534841 269.44179504 -0.28365934 264.53843751 -0.28010559 259.63505554 C-0.27080463 250.36347035 -0.24621736 241.09199207 -0.21605712 231.82045382 C-0.18245227 221.25935068 -0.16601183 210.69824226 -0.15097082 200.13709891 C-0.11966596 178.42465979 -0.06467838 156.71236712 0 135 C-24.09 135 -48.18 135 -73 135 C-73 119.16 -73 103.32 -73 87 C-48.91 87 -24.82 87 0 87 C0 58.29 0 29.58 0 0 Z " fill="#B5CDBF" transform="translate(934,476)"/>
<path d="M0 0 C18.48 0 36.96 0 56 0 C56 87.78 56 175.56 56 266 C37.52 266 19.04 266 0 266 C0 178.22 0 90.44 0 0 Z " fill="#B5CDBF" transform="translate(1388,147)"/>
<path d="M0 0 C7.71155952 5.18490521 13.92951745 13.34087218 15.75390625 22.61328125 C17.07417028 35.41774666 16.26834522 46.3450696 8.6640625 56.96484375 C2.19626959 64.87498485 -5.88895016 69.21157955 -15.94921875 70.7421875 C-28.20302127 71.77772011 -39.62281832 69.62532737 -49.375 61.8125 C-57.96060774 53.58462592 -61.02164848 44.22415877 -61.3125 32.625 C-61.09242223 20.92612921 -58.07856994 12.67550861 -50 4 C-36.28699717 -6.978272 -15.29575876 -9.50556617 0 0 Z " fill="#B5CDBF" transform="translate(1439,42)"/>
<path d="M0 0 C9.68089427 5.9002836 16.19910316 13.50839707 19.203125 24.39453125 C21.57445778 35.22135919 20.83707544 46.16150686 15.015625 55.89453125 C9.47420516 63.84597688 1.77324054 69.84814937 -7.609375 72.45703125 C-18.99627244 74.14801961 -30.77729028 74.10593145 -40.609375 67.45703125 C-48.78430114 61.30697143 -54.3969357 54.59406835 -56.609375 44.45703125 C-57.76117962 31.28832985 -57.23092817 19.72197217 -48.609375 9.14453125 C-36.77447652 -3.20150902 -15.74248535 -7.00491093 0 0 Z " fill="#FFFFFF" transform="translate(885.609375,39.54296875)"/>
<path d="M0 0 C5.28 0 10.56 0 16 0 C18.59714579 6.27598704 21.19312262 12.55245595 23.78808594 18.8293457 C24.66831016 20.95805449 25.54883616 23.08663853 26.4296875 25.21508789 C27.70655294 28.30060421 28.98248747 31.38650293 30.2578125 34.47265625 C30.67081604 35.47181061 31.08381958 36.47096497 31.50933838 37.50039673 C34.38163886 44.46355594 37.18986281 51.44921704 39.93701172 58.46264648 C40.76686415 60.89318504 40.76686415 60.89318504 42 62 C42.20996109 61.48651505 42.41992218 60.97303009 42.63624573 60.44398499 C44.85921801 55.00755825 47.0824847 49.57125198 49.3059082 44.13500977 C50.13117615 42.11713583 50.9563737 40.09923309 51.78149414 38.08129883 C53.76588755 33.22828078 55.75122955 28.37565608 57.73876953 23.52392578 C59.20236958 19.9511138 60.66147465 16.37652384 62.11669922 12.80029297 C62.75352666 11.24053782 63.39040494 9.68080343 64.02734375 8.12109375 C64.31646133 7.40752213 64.60557892 6.6939505 64.90345764 5.95875549 C66.88671658 1.11328342 66.88671658 1.11328342 68 0 C73.28 0 78.56 0 84 0 C84 27.39 84 54.78 84 83 C79.71 83 75.42 83 71 83 C70.67 64.85 70.34 46.7 70 28 C63.55048658 43.85465044 63.55048658 43.85465044 57.10620117 59.71142578 C56.29364565 61.70613153 55.48091336 63.70076529 54.66796875 65.6953125 C54.25148071 66.72261475 53.83499268 67.74991699 53.40588379 68.80834961 C51.43458537 73.63882348 49.43241605 78.38288213 47 83 C43.37 83 39.74 83 36 83 C33.68754102 77.43615127 31.37640627 71.87175486 29.06640625 66.30688477 C28.28322607 64.42067233 27.49970741 62.5346004 26.71582031 60.64868164 C25.57784616 57.91070418 24.44116172 55.17219409 23.3046875 52.43359375 C22.96380096 51.61418808 22.62291443 50.79478241 22.271698 49.95054626 C19.11040662 42.32662721 16.06614123 34.66535308 13 27 C12.67 45.48 12.34 63.96 12 83 C8.04 83 4.08 83 0 83 C0 55.61 0 28.22 0 0 Z " fill="#B5CDBF" transform="translate(1201,744)"/>
<path d="M0 0 C4.29 0 8.58 0 13 0 C13 27.39 13 54.78 13 83 C9.04 83 5.08 83 1 83 C0.505 79.04 0.505 79.04 0 75 C-0.495 75.7425 -0.99 76.485 -1.5 77.25 C-5.288468 81.4173148 -9.04938909 83.61345709 -14.68359375 84.3515625 C-22.48820918 84.58970611 -29.58137018 83.14554269 -35.55078125 77.78125 C-43.383444 68.15404188 -44.92104999 57.00034692 -44 45 C-42.35840646 35.85099142 -39.12061702 29.07426681 -32 23 C-25.70146232 18.75812769 -17.34600718 18.99358909 -10 20 C-6.39825047 22.02195951 -3.92612185 24.07387815 -1 27 C-0.67 18.09 -0.34 9.18 0 0 Z M-26 35 C-30.50609786 41.94026004 -32.15816854 49.25475451 -30.50390625 57.4609375 C-28.76773606 63.99364567 -26.62452531 68.68433105 -20.75 72.4375 C-15.54433069 73.50229599 -10.84640057 73.0257781 -6.1875 70.4375 C-0.87463006 64.51744493 0.36118688 59.76273719 0.4375 51.9375 C0.4475708 51.26493164 0.4576416 50.59236328 0.46801758 49.89941406 C0.35758987 43.49304038 -1.28210745 38.92739164 -5.5625 34.125 C-9.53559158 30.66127913 -12.32156341 30.64900893 -17.4609375 30.73046875 C-21.30987958 31.13904875 -23.21142308 32.34421245 -26 35 Z " fill="#B5CDBF" transform="translate(1936,648)"/>
<path d="M0 0 C17.16 0 34.32 0 52 0 C52 3.96 52 7.92 52 12 C39.13 12 26.26 12 13 12 C13 19.92 13 27.84 13 36 C24.88 36 36.76 36 49 36 C49 39.63 49 43.26 49 47 C37.12 47 25.24 47 13 47 C13 54.92 13 62.84 13 71 C25.87 71 38.74 71 52 71 C52 74.96 52 78.92 52 83 C34.84 83 17.68 83 0 83 C0 55.61 0 28.22 0 0 Z " fill="#B5CDBF" transform="translate(1297,744)"/>
<path d="M0 0 C42.07246377 0 42.07246377 0 51 7 C55.95669397 12.09065867 58.35125719 17.82487363 58.41699219 24.89916992 C58.40313477 25.57181885 58.38927734 26.24446777 58.375 26.9375 C58.36629883 27.64044189 58.35759766 28.34338379 58.34863281 29.06762695 C58.13610549 36.57489338 56.5228339 42.62250383 51 48 C45.03033679 51.82448478 40.18812986 54.13262502 33.01953125 54.09765625 C31.97128174 54.09515869 30.92303223 54.09266113 29.84301758 54.09008789 C28.51294678 54.08098389 27.18287598 54.07187988 25.8125 54.0625 C21.584375 54.041875 17.35625 54.02125 13 54 C13 63.57 13 73.14 13 83 C8.71 83 4.42 83 0 83 C0 55.61 0 28.22 0 0 Z M13 12 C13 22.23 13 32.46 13 43 C17.7025 43.12375 17.7025 43.12375 22.5 43.25 C23.47130859 43.28641602 24.44261719 43.32283203 25.44335938 43.36035156 C31.47741245 43.43645231 36.01832448 42.53049178 41 39 C44.0370029 35.59053448 45.22117202 31.39192812 45.4375 26.875 C44.82821444 21.47847071 43.49582403 18.38363723 39.5 14.6875 C35.93291971 12.2797208 33.31321853 11.87688958 29.11328125 11.90234375 C27.845448 11.90609009 27.845448 11.90609009 26.55200195 11.90991211 C25.48296631 11.91901611 24.41393066 11.92812012 23.3125 11.9375 C19.909375 11.958125 16.50625 11.97875 13 12 Z " fill="#B5CDBF" transform="translate(1134,744)"/>
<path d="M0 0 C7.01110754 3.79377329 11.42118411 10.09084764 13.9375 17.5 C14.9375 22.5 14.9375 22.5 14.9375 34.5 C0.7475 34.83 -13.4425 35.16 -28.0625 35.5 C-27.0725 38.47 -26.0825 41.44 -25.0625 44.5 C-24.7325 45.49 -24.4025 46.48 -24.0625 47.5 C-21.68624655 48.68391223 -21.68624655 48.68391223 -19.0625 49.5 C-17.5775 49.995 -17.5775 49.995 -16.0625 50.5 C-11.3387819 51.04885106 -7.96115118 50.96596728 -3.6875 48.75 C-0.77551908 46.41865108 -0.77551908 46.41865108 1.9375 42.5 C5.8975 43.16 9.8575 43.82 13.9375 44.5 C12.8580135 50.97691903 11.67200527 53.30512652 6.9375 57.5 C-1.53522048 62.89912323 -10.77535948 63.80681243 -20.6328125 62.0390625 C-27.9804724 59.86292629 -33.94608956 55.85566757 -37.9375 49.25 C-43.05062477 39.00653454 -43.05029756 28.31920584 -40.09375 17.46484375 C-37.11590934 8.90355185 -31.99335951 3.72979174 -24.0625 -0.5 C-17.0604963 -2.83400123 -6.92174816 -2.72311409 0 0 Z M-23.671875 12.796875 C-27.0993863 16.5469756 -27.59588683 19.36685391 -29.0625 24.5 C-18.8325 24.5 -8.6025 24.5 1.9375 24.5 C0.92927837 17.44244859 0.24703082 14.80533695 -5.0625 10.5 C-11.29336432 7.18821708 -18.23812484 8.41822196 -23.671875 12.796875 Z " fill="#B5CDBF" transform="translate(1999.0625,669.5)"/>
<path d="M0 0 C6.84408053 4.08344301 10.77688501 9.41664083 13.375 16.9375 C14.82767257 22.74819027 14.375 27.66323473 14.375 33.9375 C-0.145 33.9375 -14.665 33.9375 -29.625 33.9375 C-26.30298864 43.61120864 -26.30298864 43.61120864 -19.4375 49.1875 C-13.92307217 50.65801409 -9.37525124 50.84503768 -4.25 48.1875 C-1.33801908 45.85615108 -1.33801908 45.85615108 1.375 41.9375 C5.335 42.5975 9.295 43.2575 13.375 43.9375 C12.28877951 49.36860244 11.01393976 52.88936765 6.54296875 56.359375 C-1.87174879 61.82974587 -9.68621748 62.82410945 -19.625 61.9375 C-25.58439187 60.46358623 -31.74005372 57.85696456 -35.625 52.9375 C-42.28881939 41.78932215 -44.22890798 31.52600069 -41.5 18.8125 C-39.41568469 11.16345607 -35.28520142 5.3234863 -28.625 0.9375 C-19.83618682 -3.42443561 -9.06970057 -4.17013547 0 0 Z M-25.5 13.6875 C-28.11121299 17.33076322 -28.11121299 17.33076322 -29.625 23.9375 C-19.395 23.9375 -9.165 23.9375 1.375 23.9375 C0.37624749 16.94623242 -0.24764501 14.13363684 -5.625 9.9375 C-13.20462888 6.39940755 -19.62124293 8.06434106 -25.5 13.6875 Z " fill="#B5CDBF" transform="translate(1379.625,670.0625)"/>
<path d="M0 0 C5.55263129 3.52487857 9.83476882 8.52201379 12.2890625 14.640625 C13.2890625 19.453125 13.2890625 19.453125 13.2890625 33.453125 C-0.9009375 33.453125 -15.0909375 33.453125 -29.7109375 33.453125 C-27.42625691 42.6998732 -27.42625691 42.6998732 -21.7109375 48.453125 C-17.08496532 49.99511573 -12.54193916 49.96383089 -7.7109375 49.453125 C-3.80017825 47.46344047 -2.13404652 46.08778854 0.2890625 42.453125 C3.9190625 42.783125 7.5490625 43.113125 11.2890625 43.453125 C12.2890625 47.453125 12.2890625 47.453125 10.7890625 50.890625 C7.13571371 56.76117857 1.85910722 59.68396705 -4.7109375 61.453125 C-13.67380818 62.47936462 -22.99051791 62.57191523 -30.7109375 57.453125 C-32.3196875 56.40125 -32.3196875 56.40125 -33.9609375 55.328125 C-42.24229726 46.6703398 -43.26305757 36.53096361 -43.05078125 25.08984375 C-42.66064378 17.14301866 -39.80621236 10.39937632 -34.5234375 4.453125 C-25.04118489 -3.88717891 -11.38617054 -5.26656748 0 0 Z M-27.0234375 14.828125 C-29.17364965 17.7928794 -29.17364965 17.7928794 -29.7109375 23.453125 C-19.8109375 23.453125 -9.9109375 23.453125 0.2890625 23.453125 C-0.77646443 15.99443651 -0.90362223 15.26044027 -5.7109375 10.453125 C-13.72651045 5.61072732 -20.90223272 8.54148225 -27.0234375 14.828125 Z " fill="#B5CDBF" transform="translate(1494.7109375,766.546875)"/>
<path d="M0 0 C5.22470848 3.91582706 6.79826624 8.12726294 7.88671875 14.4140625 C8.13682072 17.95980741 8.12092393 21.48597915 8.08203125 25.0390625 C8.07920135 26.02656494 8.07637146 27.01406738 8.07345581 28.03149414 C8.06233695 31.15914465 8.03724791 34.28649978 8.01171875 37.4140625 C8.00167823 39.54556876 7.99255426 41.67707954 7.984375 43.80859375 C7.96242482 49.010529 7.92795266 54.21224581 7.88671875 59.4140625 C3.59671875 59.4140625 -0.69328125 59.4140625 -5.11328125 59.4140625 C-5.60828125 56.4440625 -5.60828125 56.4440625 -6.11328125 53.4140625 C-7.00015625 54.1978125 -7.88703125 54.9815625 -8.80078125 55.7890625 C-14.07909326 60.4536173 -19.29714456 60.80670417 -26.109375 60.65625 C-32.34393069 60.15359401 -36.34747072 58.61421824 -40.55078125 53.9140625 C-45.19671011 48.14146424 -44.71731014 41.52234447 -44.11328125 34.4140625 C-42.13060222 29.7051998 -39.45081168 27.39653405 -34.78125 25.28515625 C-29.96208229 23.71169446 -24.98052183 22.91539807 -19.9921875 22.07421875 C-15.65498986 21.33606528 -11.39739461 20.40858882 -7.11328125 19.4140625 C-6.12715681 16.29358652 -6.06786652 15.54021452 -7.23828125 12.2890625 C-8.8730296 9.3764403 -8.8730296 9.3764403 -11.23828125 7.9765625 C-15.98187674 7.04846773 -20.73455558 6.99968507 -24.9921875 9.53125 C-27.14869173 11.28763176 -28.86145596 12.91041192 -30.11328125 15.4140625 C-33.74328125 14.7540625 -37.37328125 14.0940625 -41.11328125 13.4140625 C-42.11328125 9.4140625 -42.11328125 9.4140625 -40.73828125 6.5390625 C-31.89796194 -5.608649 -12.35715716 -7.5108018 0 0 Z M-15.86328125 31.1640625 C-16.77078125 31.32132813 -17.67828125 31.47859375 -18.61328125 31.640625 C-23.73788849 32.61460006 -27.37931969 33.50554582 -31.11328125 37.4140625 C-32.27538344 39.80757745 -32.27538344 39.80757745 -32.11328125 42.4140625 C-30.49172496 45.90040851 -29.34874833 47.25708444 -26.11328125 49.4140625 C-21.3069339 49.9869553 -16.68759452 50.05048701 -12.17578125 48.2265625 C-8.84812969 45.30226264 -6.52246782 42.64162222 -5.11328125 38.4140625 C-5.0458726 36.85287822 -5.02813669 35.2890373 -5.05078125 33.7265625 C-5.05980469 32.91832031 -5.06882812 32.11007812 -5.078125 31.27734375 C-5.08972656 30.66246094 -5.10132813 30.04757812 -5.11328125 29.4140625 C-8.67171542 29.4140625 -12.37833481 30.51185185 -15.86328125 31.1640625 Z " fill="#B5CDBF" transform="translate(1662.11328125,671.5859375)"/>
<path d="M0 0 C4.67229118 4.80971151 6.25647979 10.32885597 6.23852539 16.86425781 C6.23844986 17.78491028 6.23837433 18.70556274 6.23829651 19.65411377 C6.23313522 20.63966248 6.22797394 21.62521118 6.22265625 22.640625 C6.2212413 23.65598328 6.21982635 24.67134155 6.21836853 25.71746826 C6.21277516 28.95750892 6.20022385 32.19748025 6.1875 35.4375 C6.18248414 37.63541567 6.17792139 39.83333242 6.17382812 42.03125 C6.1628079 47.41669334 6.14554778 52.80208492 6.125 58.1875 C1.835 58.1875 -2.455 58.1875 -6.875 58.1875 C-7.205 56.5375 -7.535 54.8875 -7.875 53.1875 C-8.98875 54.115625 -8.98875 54.115625 -10.125 55.0625 C-17.08552953 60.441091 -24.42117778 60.00939938 -32.875 59.1875 C-38.18032494 57.3213828 -41.79475051 53.86947923 -44.875 49.1875 C-46.8827921 43.16412369 -46.92453453 36.44803591 -44.25 30.6875 C-35.86748114 21.86379594 -24.01287393 21.21013317 -12.45703125 19.6171875 C-9.89757752 19.32142223 -9.89757752 19.32142223 -7.875 18.1875 C-8.14828098 14.63484731 -8.48670988 11.87583249 -10.25 8.75 C-14.57195955 6.17740503 -18.98659152 6.47298588 -23.875 7.1875 C-27.78575925 9.17718453 -29.45189098 10.55283646 -31.875 14.1875 C-40.44642857 13.1875 -40.44642857 13.1875 -43.875 12.1875 C-43.03506865 6.29773752 -40.35137872 2.98924718 -35.875 -0.8125 C-24.77933324 -7.15540504 -10.74686293 -6.77519619 0 0 Z M-17.1875 30.5 C-17.94740234 30.61794922 -18.70730469 30.73589844 -19.49023438 30.85742188 C-24.9603816 31.78416272 -28.86006403 33.17256403 -32.875 37.1875 C-33.3173824 41.16894156 -33.53805693 43.31866678 -31.0625 46.5625 C-27.10909946 49.49931183 -23.67885118 49.58125829 -18.875 49.1875 C-14.26110684 47.55358921 -10.30008655 45.60971665 -7.875 41.1875 C-6.91429566 38.30538698 -6.76918117 36.48899956 -6.8125 33.5 C-6.82152344 32.69175781 -6.83054687 31.88351562 -6.83984375 31.05078125 C-6.85144531 30.43589844 -6.86304688 29.82101562 -6.875 29.1875 C-10.35435492 29.1875 -13.76417907 29.92515664 -17.1875 30.5 Z " fill="#B5CDBF" transform="translate(1735.875,768.8125)"/>
<path d="M0 0 C3.83741611 3.46233033 6.65861904 7.34285165 7.51693726 12.52368164 C7.65416076 15.55904874 7.64089145 18.55620715 7.56640625 21.59375 C7.55933151 22.69223267 7.55225677 23.79071533 7.54496765 24.92248535 C7.51713237 28.40736975 7.45441087 31.89060685 7.390625 35.375 C7.36552824 37.74737252 7.3427175 40.11977039 7.32226562 42.4921875 C7.26734074 48.2870864 7.18114067 54.08076457 7.078125 59.875 C3.118125 59.875 -0.841875 59.875 -4.921875 59.875 C-5.416875 56.905 -5.416875 56.905 -5.921875 53.875 C-6.80875 54.65875 -7.695625 55.4425 -8.609375 56.25 C-14.08155558 61.08588051 -19.63352734 61.31510007 -26.69140625 61.1875 C-32.85241211 60.59151394 -36.39028871 58.33999558 -40.796875 54.125 C-44.41479583 48.59170931 -45.37717475 44.23742549 -44.296875 37.6875 C-43.06189697 32.70947129 -41.68265299 29.5459972 -37.140625 26.796875 C-28.96877079 22.94114097 -19.69492977 22.30342105 -10.82617188 21.20043945 C-8.84251424 20.95621616 -8.84251424 20.95621616 -6.921875 19.875 C-6.52448254 14.95209314 -6.52448254 14.95209314 -8.359375 10.5 C-12.09074716 8.133764 -15.53695194 7.68435117 -19.921875 7.875 C-24.68261411 9.49185479 -27.05516227 11.79544727 -29.921875 15.875 C-31.90260865 15.594172 -33.88145948 15.30003386 -35.859375 15 C-37.51259766 14.75636719 -37.51259766 14.75636719 -39.19921875 14.5078125 C-40.09769531 14.29898438 -40.99617188 14.09015625 -41.921875 13.875 C-42.251875 13.215 -42.581875 12.555 -42.921875 11.875 C-39.98648108 5.41713337 -35.86462349 1.45955688 -29.671875 -1.875 C-20.36941709 -5.05835062 -8.69342827 -4.50307076 0 0 Z M-15.671875 31.625 C-16.579375 31.78226563 -17.486875 31.93953125 -18.421875 32.1015625 C-23.53510251 33.07337475 -27.21950804 33.94733688 -30.921875 37.875 C-32.16864506 40.77206707 -32.16864506 40.77206707 -31.921875 43.875 C-30.15148051 46.62216387 -28.85895656 48.40645922 -25.921875 49.875 C-20.61051548 50.40440021 -16.24914759 50.53863629 -11.421875 48.125 C-7.98178087 45.02891528 -5.57090281 42.54800025 -4.921875 37.875 C-4.84991402 35.20216364 -4.87729068 32.55005906 -4.921875 29.875 C-8.48030917 29.875 -12.18692856 30.97278935 -15.671875 31.625 Z " fill="#B5CDBF" transform="translate(1232.921875,671.125)"/>
<path d="M0 0 C7.74149549 4.70535719 11.97650701 11.24712195 14.3125 19.9375 C16.16552696 30.9474558 15.4577764 41.38769766 9.3125 50.9375 C5.03510783 56.04660731 -0.98184908 60.74838092 -7.6875 61.9375 C-17.6019419 62.75698639 -24.9104644 61.35120285 -33.4375 56.3125 C-40.74521048 48.59880561 -43.62605036 40.20611492 -43.71484375 29.703125 C-43.28314416 20.27214924 -41.18117937 11.45853752 -34.48046875 4.4765625 C-25.1561852 -3.52728874 -11.23894885 -5.11788745 0 0 Z M-26.6875 14.9375 C-30.9959169 22.54903652 -31.35818752 30.25471299 -29.41796875 38.640625 C-27.84109508 43.59892295 -25.10817555 47.2280537 -20.6875 49.9375 C-15.98227445 51.50590852 -12.16101184 51.48645539 -7.5 49.75 C-2.89754398 46.78397279 -0.23411021 43.1721807 1.3125 37.9375 C2.95968568 30.04669621 2.34118429 22.71505006 -1.5 15.5625 C-5.44781733 10.65413966 -5.44781733 10.65413966 -11.20703125 8.484375 C-18.17351486 8.06505177 -22.36769918 9.3587858 -26.6875 14.9375 Z " fill="#B5CDBF" transform="translate(1779.6875,670.0625)"/>
<path d="M0 0 C7.68739018 4.08438188 12.03652655 10.02625731 15.05859375 18.09375 C17.86409608 29.01197879 16.62306281 40.47402174 11.30859375 50.34375 C5.86885041 56.99232519 0.00682813 61.53894796 -8.80859375 62.52734375 C-10.14433027 62.55055248 -11.48061956 62.55136485 -12.81640625 62.53125 C-13.51677002 62.52440186 -14.21713379 62.51755371 -14.9387207 62.51049805 C-22.33176476 62.28190016 -27.22325551 60.44948064 -32.75390625 55.65625 C-33.47578125 54.810625 -34.19765625 53.965 -34.94140625 53.09375 C-35.64265625 52.35125 -36.34390625 51.60875 -37.06640625 50.84375 C-42.91404111 42.26721887 -42.97643717 32.13892033 -41.94140625 22.09375 C-40.39214711 14.39356319 -36.93290528 8.2155153 -30.94140625 3.09375 C-21.69130485 -2.75557883 -10.30710218 -4.08501664 0 0 Z M-23.94140625 13.09375 C-29.32395403 20.12368362 -29.55500117 27.55820639 -28.94140625 36.09375 C-27.80914374 41.18060582 -25.58066536 45.34421031 -21.94140625 49.09375 C-17.46002952 51.8190412 -13.0408863 51.72311621 -7.94140625 51.09375 C-2.8892903 48.84836513 -0.94120506 45.9287584 1.296875 41.09375 C4.13628419 33.63848075 3.93684849 25.60618113 1.18359375 18.140625 C-1.08126773 14.01983536 -4.77847254 11.17521686 -8.94140625 9.09375 C-14.95998202 8.58370121 -19.27120871 9.02807042 -23.94140625 13.09375 Z " fill="#B5CDBF" transform="translate(1990.94140625,765.90625)"/>
<path d="M0 0 C5.48364565 3.24542294 8.65630384 6.91731942 11.0625 12.8125 C12.25076287 18.14472186 12.19097426 23.37344128 12.16015625 28.8046875 C12.1587413 29.75062775 12.15732635 30.69656799 12.15586853 31.6711731 C12.15029484 34.67664829 12.1377472 37.68204753 12.125 40.6875 C12.1199816 42.73176975 12.11541929 44.77604068 12.11132812 46.8203125 C12.10033403 51.81773736 12.08308757 56.81510583 12.0625 61.8125 C7.7725 61.8125 3.4825 61.8125 -0.9375 61.8125 C-0.95208252 60.64267578 -0.96666504 59.47285156 -0.98168945 58.26757812 C-1.03996383 53.89878832 -1.11719363 49.5304983 -1.19995117 45.16210938 C-1.23306404 43.27677565 -1.26113782 41.39134604 -1.28393555 39.50585938 C-1.31773376 36.78474328 -1.3700603 34.06449512 -1.42578125 31.34375 C-1.43217117 30.51008911 -1.4385611 29.67642822 -1.44514465 28.81750488 C-1.58390289 23.20787406 -2.52688236 18.90913382 -4.9375 13.8125 C-8.75071823 11.39257305 -11.05777776 10.78216475 -15.5625 10.9375 C-19.07118067 11.84715795 -21.18947493 12.44614508 -23.9375 14.8125 C-26.628274 20.73228449 -27.39841778 25.67115465 -27.44921875 32.125 C-27.46716995 32.97932617 -27.48512115 33.83365234 -27.50361633 34.71386719 C-27.55732618 37.41336286 -27.59148739 40.11268582 -27.625 42.8125 C-27.6582079 44.65497176 -27.69270073 46.49742083 -27.72851562 48.33984375 C-27.81302943 52.83060369 -27.88002656 57.32131592 -27.9375 61.8125 C-32.2275 61.8125 -36.5175 61.8125 -40.9375 61.8125 C-40.9375 41.3525 -40.9375 20.8925 -40.9375 -0.1875 C-36.6475 -0.1875 -32.3575 -0.1875 -27.9375 -0.1875 C-27.6075 1.7925 -27.2775 3.7725 -26.9375 5.8125 C-26.050625 5.02875 -25.16375 4.245 -24.25 3.4375 C-17.77011228 -2.2889124 -7.98433643 -3.08844662 0 0 Z " fill="#B5CDBF" transform="translate(1555.9375,765.1875)"/>
<path d="M0 0 C3.96 0 7.92 0 12 0 C12.33 2.64 12.66 5.28 13 8 C13.53625 7.236875 14.0725 6.47375 14.625 5.6875 C18.1422338 1.70747228 21.3681412 0.17783077 26.65625 -0.3984375 C27.9246875 -0.39070312 29.193125 -0.38296875 30.5 -0.375 C31.7684375 -0.38273438 33.036875 -0.39046875 34.34375 -0.3984375 C39.78883682 0.19493735 43.72799527 2.10351084 47.25 6.3125 C47.72953125 6.86550781 48.2090625 7.41851563 48.703125 7.98828125 C52.53860348 13.93789396 52.2658805 20.05073188 52.1953125 26.8671875 C52.1924826 27.90191193 52.18965271 28.93663635 52.18673706 30.00271606 C52.17558048 33.29359714 52.15048397 36.58420178 52.125 39.875 C52.11496437 42.11197522 52.10583953 44.34895473 52.09765625 46.5859375 C52.0756559 52.05739748 52.041157 57.52865194 52 63 C47.71 63 43.42 63 39 63 C38.98598145 61.09323486 38.98598145 61.09323486 38.97167969 59.14794922 C38.9317135 54.41761638 38.86593586 49.68792938 38.79248047 44.95800781 C38.76430934 42.91349605 38.74307565 40.86887616 38.72900391 38.82421875 C38.70752113 35.87964678 38.6608431 32.93636959 38.609375 29.9921875 C38.60814636 29.0825827 38.60691772 28.17297791 38.60565186 27.23580933 C38.47509401 21.53880628 37.70097607 18.38979302 34 14 C30.58489731 11.40923244 27.16827596 11.64066587 23 12 C19.29401718 13.28284021 17.5165814 14.2104772 15.36010742 17.50634766 C13.59908271 22.02981987 13.52292123 25.96101851 13.48828125 30.7734375 C13.47033005 31.6971817 13.45237885 32.6209259 13.43388367 33.57266235 C13.37994576 36.50672926 13.345938 39.44063501 13.3125 42.375 C13.27931234 44.37111609 13.24482135 46.36721097 13.20898438 48.36328125 C13.12422874 53.24207093 13.05733883 58.12081419 13 63 C8.71 63 4.42 63 0 63 C0 42.21 0 21.42 0 0 Z " fill="#B5CDBF" transform="translate(1802,668)"/>
<path d="M0 0 C5.35322441 3.1496102 8.58078604 7.48533459 10.5625 13.375 C10.80300903 15.79853821 10.80300903 15.79853821 10.78955078 18.34887695 C10.78939972 19.30949539 10.78924866 20.27011383 10.78909302 21.25984192 C10.77877045 22.2839769 10.76844788 23.30811188 10.7578125 24.36328125 C10.7549826 25.42161667 10.75215271 26.47995209 10.74923706 27.57035828 C10.7380629 30.94285498 10.71296307 34.31508387 10.6875 37.6875 C10.67746664 39.9772097 10.66834141 42.26692357 10.66015625 44.55664062 C10.63813255 50.16286324 10.60362141 55.76888625 10.5625 61.375 C6.2725 61.375 1.9825 61.375 -2.4375 61.375 C-2.4468457 60.06829346 -2.45619141 58.76158691 -2.46582031 57.4152832 C-2.50573838 52.56012066 -2.57150275 47.70559056 -2.64501953 42.85083008 C-2.67321852 40.75097792 -2.69443837 38.65101983 -2.70849609 36.55102539 C-2.72994014 33.52955941 -2.77659867 30.50936566 -2.828125 27.48828125 C-2.82935364 26.55164139 -2.83058228 25.61500153 -2.83184814 24.64997864 C-2.92705011 20.3987343 -3.04602368 18.00346758 -5.33496094 14.32885742 C-8.22179713 11.64616467 -10.37001278 10.44643757 -14.359375 10.30859375 C-18.30256805 10.55319031 -20.12884148 11.13344116 -23.3125 13.625 C-27.55193804 19.11133159 -27.76045257 23.91566867 -27.8515625 30.61328125 C-27.87092865 31.49404831 -27.8902948 32.37481537 -27.9102478 33.28227234 C-27.96982851 36.08391766 -28.01634265 38.88560456 -28.0625 41.6875 C-28.10069959 43.59181438 -28.13975247 45.49611185 -28.1796875 47.40039062 C-28.27551233 52.05845572 -28.3596226 56.71660168 -28.4375 61.375 C-32.7275 61.375 -37.0175 61.375 -41.4375 61.375 C-41.4375 40.915 -41.4375 20.455 -41.4375 -0.625 C-37.1475 -0.625 -32.8575 -0.625 -28.4375 -0.625 C-28.1075 1.355 -27.7775 3.335 -27.4375 5.375 C-26.550625 4.59125 -25.66375 3.8075 -24.75 3 C-18.0783986 -2.8958338 -8.02494938 -3.66157386 0 0 Z " fill="#B5CDBF" transform="translate(2055.4375,765.625)"/>
<path d="M0 0 C4.84157419 3.19103753 7.22329048 6.7386004 8.57102966 12.39775085 C8.98172143 14.8891173 9.12062861 17.17684341 9.11352539 19.69848633 C9.11344986 20.59904251 9.11337433 21.49959869 9.11329651 22.42744446 C9.10813522 23.3859581 9.10297394 24.34447174 9.09765625 25.33203125 C9.0962413 26.32377853 9.09482635 27.31552582 9.09336853 28.33732605 C9.08778418 31.49574843 9.07523452 34.65409915 9.0625 37.8125 C9.05748298 39.95768127 9.05292042 42.10286365 9.04882812 44.24804688 C9.03781987 49.4987254 9.02056597 54.74935056 9 60 C4.71 60 0.42 60 -4 60 C-4.01458252 58.75911621 -4.02916504 57.51823242 -4.04418945 56.23974609 C-4.10230723 51.62129379 -4.17953947 47.00332216 -4.26245117 42.38525391 C-4.29563713 40.38923971 -4.32368868 38.39313311 -4.34643555 36.39697266 C-4.38009793 33.5220616 -4.43241977 30.64799257 -4.48828125 27.7734375 C-4.49467117 26.88570648 -4.5010611 25.99797546 -4.50764465 25.08334351 C-4.62690606 20.01975494 -5.10884525 16.34285656 -8 12 C-14.10288036 8.3617444 -18.19319506 9.06944768 -24.8125 10.6875 C-28.0117702 12.60706212 -28.09290212 14.400002 -29 18 C-29.31496873 21.25682269 -29.37150704 24.50297425 -29.4140625 27.7734375 C-29.43342865 28.6971817 -29.4527948 29.6209259 -29.4727478 30.57266235 C-29.53225705 33.50668264 -29.57881395 36.44074276 -29.625 39.375 C-29.66320617 41.37111032 -29.70225942 43.36720463 -29.7421875 45.36328125 C-29.83793496 50.24205651 -29.92207139 55.12090891 -30 60 C-34.29 60 -38.58 60 -43 60 C-43 39.54 -43 19.08 -43 -2 C-39.04 -2 -35.08 -2 -31 -2 C-30.67 0.31 -30.34 2.62 -30 5 C-29.319375 4.236875 -28.63875 3.47375 -27.9375 2.6875 C-19.96362833 -4.60774429 -9.34181874 -5.2314185 0 0 Z " fill="#B5CDBF" transform="translate(1795,767)"/>
<path d="M0 0 C5.08331311 4.4975407 6.85254661 7.11527965 8 14 C4.04 14.66 0.08 15.32 -4 16 C-4.99 14.35 -5.98 12.7 -7 11 C-11.24979056 8.36512985 -13.8176967 7.66279647 -18.75 8.5625 C-21.53280173 9.34263587 -22.93237918 9.94397132 -25.1875 11.8125 C-26.20660383 14.01980192 -26.20660383 14.01980192 -25.625 16.5625 C-22.25986358 21.61020463 -15.09555795 22.59063533 -9.5 23.9375 C-2.78709952 25.64840581 2.20742906 27.42789519 7.375 32.1875 C9.97376731 36.6853665 10.51281192 41.03108889 9.62890625 46.1484375 C7.95824501 51.56511556 4.76071136 55.0113312 0 58 C-5.43618811 60.80491278 -9.79199263 61.5189574 -15.875 61.4375 C-17.06754395 61.42505249 -17.06754395 61.42505249 -18.28417969 61.41235352 C-26.26988002 61.18215432 -31.86068822 59.53762717 -37.5 53.6875 C-40.24341746 50.18623242 -40.82050456 47.39763839 -41 43 C-36.93183621 42.01377848 -33.17935717 41.61302248 -29 42 C-27.0625 43.875 -27.0625 43.875 -26 46 C-26 46.66 -26 47.32 -26 48 C-19.71811908 50.2721697 -14.1239878 50.52203416 -7.77734375 48.1796875 C-5.55799585 47.00697694 -5.55799585 47.00697694 -5.25 43.375 C-5.1675 42.26125 -5.085 41.1475 -5 40 C-7.92063364 37.55923906 -10.29941471 36.44297411 -13.9921875 35.5703125 C-14.94480469 35.33183594 -15.89742187 35.09335937 -16.87890625 34.84765625 C-18.86714623 34.3680938 -20.85673316 33.89407985 -22.84765625 33.42578125 C-29.57061277 31.72916469 -34.48286473 30.0379045 -38.3125 23.89453125 C-40.31214211 17.83879689 -40.12551235 13.02757234 -38 7 C-34.96633761 1.63275115 -29.87990559 -0.73985972 -24.171875 -2.59375 C-16.55692774 -4.01812862 -6.67959882 -4.48785545 0 0 Z " fill="#B5CDBF" transform="translate(1397,767)"/>
<path d="M0 0 C3.13025615 3.21720771 6.25 7.66295515 6.25 12.3125 C2.29 12.9725 -1.67 13.6325 -5.75 14.3125 C-6.74 12.6625 -7.73 11.0125 -8.75 9.3125 C-13.36337158 6.23691895 -17.16106527 5.99992268 -22.5625 7.0625 C-25.99291147 8.05708961 -25.99291147 8.05708961 -27.75 11.3125 C-27.91713569 13.93781524 -27.91713569 13.93781524 -27.75 16.3125 C-21.88229678 19.73532688 -16.16028127 21.36979712 -9.5625 22.74121094 C-2.47873299 24.31576421 2.0701792 27.42978925 6.25 33.3125 C8.27159736 37.35569472 7.85957716 42.2487508 6.6015625 46.5078125 C3.85486499 52.68201289 -0.29697042 55.89944467 -6.4609375 58.421875 C-15.32161609 60.82120365 -26.46024665 60.59438809 -34.796875 56.58203125 C-39.38922457 53.59700403 -42.1824018 49.5853303 -43.75 44.3125 C-43.75 43.3225 -43.75 42.3325 -43.75 41.3125 C-37.315 40.8175 -37.315 40.8175 -30.75 40.3125 C-30.21375 41.26125 -29.6775 42.21 -29.125 43.1875 C-26.35706499 46.82951975 -25.21023529 47.55510155 -20.75 48.3125 C-15.85547003 48.45086127 -12.68662121 47.96813485 -8.625 45.125 C-6.38685264 42.4282289 -6.38685264 42.4282289 -7.1328125 39.13671875 C-7.33648438 38.20472656 -7.54015625 37.27273438 -7.75 36.3125 C-8.77738281 36.07015625 -9.80476563 35.8278125 -10.86328125 35.578125 C-34.66972974 29.86768743 -34.66972974 29.86768743 -39.75 23.3125 C-42.60515907 18.57760986 -42.38139119 13.68322257 -41.75 8.3125 C-38.67445337 2.04749761 -33.85956493 -1.86716638 -27.25390625 -4.1484375 C-17.46224231 -6.25647123 -8.48868198 -5.20896394 0 0 Z " fill="#B5CDBF" transform="translate(1854.75,768.6875)"/>
<path d="M0 0 C4.6968842 2.98315618 8.58816397 7.00580046 10.1875 12.375 C10.22875 13.055625 10.27 13.73625 10.3125 14.4375 C6.17714881 16.01287188 2.72938522 17.18931025 -1.6875 16.4375 C-4.375 13.5 -4.375 13.5 -6.6875 10.4375 C-11.47175799 8.84274734 -15.30465 8.95094167 -20.0625 10.625 C-22.83289456 12.20900248 -22.83289456 12.20900248 -23.8125 14.875 C-23.91067331 17.48421709 -23.91067331 17.48421709 -22.328125 19.41015625 C-18.38967076 22.43391032 -14.07990716 23.24891356 -9.3125 24.4375 C-1.59095601 26.37855111 4.14417558 28.0190447 9.6875 34 C12.23414843 39.3871409 12.31086121 44.73934509 10.7578125 50.4921875 C8.15339525 56.07308162 2.72705361 58.95131052 -2.6875 61.4375 C-12.3288056 63.9909758 -22.92966424 63.31891665 -31.6875 58.4375 C-36.4640206 54.56257164 -38.47580225 50.37481897 -39.6875 44.4375 C-35.3975 43.7775 -31.1075 43.1175 -26.6875 42.4375 C-26.089375 43.38625 -25.49125 44.335 -24.875 45.3125 C-22.87187474 48.57714197 -22.87187474 48.57714197 -19.6875 50.4375 C-14.81416752 51.01837709 -10.19358084 50.9796891 -5.5625 49.3125 C-3.45457625 47.48408475 -3.45457625 47.48408475 -2.6875 44.4375 C-2.38474323 41.49740487 -2.38474323 41.49740487 -3.91552734 39.82348633 C-5.98501128 38.20479518 -7.47337023 37.78355905 -10.0390625 37.26171875 C-10.88670166 37.07689941 -11.73434082 36.89208008 -12.60766602 36.70166016 C-13.50026123 36.5113623 -14.39285645 36.32106445 -15.3125 36.125 C-31.18601923 32.42480649 -31.18601923 32.42480649 -35.875 25.74609375 C-38.54603811 20.41594181 -38.28400936 15.43756079 -36.625 9.875 C-33.77629563 4.82084708 -30.34246967 1.56001964 -24.98046875 -0.70703125 C-17.49931097 -2.65053487 -7.17065969 -3.24420137 0 0 Z " fill="#B5CDBF" transform="translate(2057.6875,669.5625)"/>
<path d="M0 0 C5.17866091 3.13724338 9.37343905 7.30047801 10.89453125 13.29296875 C11.1875 15.5 11.1875 15.5 11.3125 19 C7.0225 19 2.7325 19 -1.6875 19 C-2.079375 18.071875 -2.47125 17.14375 -2.875 16.1875 C-4.91398139 12.60170513 -5.8744458 11.49206469 -9.6875 10 C-14.31112543 9.30773815 -17.71912734 9.56149162 -22 11.5 C-26.58509951 15.76520885 -28.39043532 19.25366736 -29.0703125 25.5390625 C-29.2888408 32.80877058 -29.39699241 40.07001941 -24.6875 46 C-20.82823309 49.2668738 -17.01540779 50.3216294 -12 50.0625 C-7.59507378 49.31821936 -5.43216649 47.57638361 -2.6875 44 C-2.0275 42.68 -1.3675 41.36 -0.6875 40 C3.2725 40 7.2325 40 11.3125 40 C10.80020328 47.42830243 9.0086031 51.36517197 3.5625 56.6875 C-4.14412838 62.1710625 -11.38960549 63.01451847 -20.6875 62 C-29.34448784 59.71258451 -35.10428447 55.72315261 -39.62109375 47.9921875 C-44.77009554 38.37317317 -44.71045579 26.30869715 -41.6875 16 C-38.23085333 7.97604642 -33.20727329 2.7888365 -25.453125 -1.12890625 C-17.78566792 -3.54393864 -7.35556712 -3.33018816 0 0 Z " fill="#B5CDBF" transform="translate(1321.6875,670)"/>
<path d="M0 0 C6.15938611 4.49914006 9.49351815 9.13711608 10.70703125 16.69921875 C10.80177734 17.53453125 10.80177734 17.53453125 10.8984375 18.38671875 C8.79602147 18.52168126 6.6911414 18.61869182 4.5859375 18.69921875 C3.41417969 18.75722656 2.24242187 18.81523438 1.03515625 18.875 C-2.1015625 18.38671875 -2.1015625 18.38671875 -4.01953125 15.9921875 C-5.1015625 13.38671875 -5.1015625 13.38671875 -5.1015625 11.38671875 C-9.91339289 8.82040921 -14.79091395 8.84338507 -20.1015625 9.38671875 C-25.20802173 11.27388847 -26.79545578 14.69214436 -29.1015625 19.38671875 C-31.26478961 26.28912106 -30.91235809 34.06233441 -28.015625 40.66796875 C-26.15603902 44.16462615 -24.27980126 46.64611153 -20.9140625 48.76171875 C-15.58680944 49.94555276 -10.86335151 49.43629518 -6.1640625 46.63671875 C-3.6840124 44.19743096 -3.6840124 44.19743096 -2.1015625 39.38671875 C2.1884375 39.38671875 6.4784375 39.38671875 10.8984375 39.38671875 C9.53152246 46.90475146 7.85360283 52.30246567 1.5859375 57.13671875 C-6.00185946 62.11521001 -14.81624303 62.47039452 -23.59375 60.95703125 C-30.52355339 59.01476802 -35.8444657 54.97679084 -39.67578125 48.8828125 C-44.83981038 38.95426366 -45.8861016 27.75498652 -42.8515625 16.88671875 C-40.20356691 9.40643627 -35.61453652 3.88322039 -29.1015625 -0.61328125 C-20.68131938 -4.19990103 -8.14551942 -4.44726635 0 0 Z " fill="#B5CDBF" transform="translate(1603.1015625,670.61328125)"/>
<path d="M0 0 C4.29 0 8.58 0 13 0 C13 23.43 13 46.86 13 71 C25.21 71 37.42 71 50 71 C50 74.96 50 78.92 50 83 C33.5 83 17 83 0 83 C0 55.61 0 28.22 0 0 Z " fill="#B5CDBF" transform="translate(1134,648)"/>
<path d="M0 0 C0.9178125 -0.00515625 1.835625 -0.0103125 2.78125 -0.015625 C5.6778282 0.26737402 7.86375653 1.04649755 10.5 2.25 C9.51 5.55 8.52 8.85 7.5 12.25 C1.56 12.745 1.56 12.745 -4.5 13.25 C-5.16 16.88 -5.82 20.51 -6.5 24.25 C-1.88 24.25 2.74 24.25 7.5 24.25 C7.5 27.88 7.5 31.51 7.5 35.25 C2.88 35.25 -1.74 35.25 -6.5 35.25 C-6.5 52.41 -6.5 69.57 -6.5 87.25 C-10.79 87.25 -15.08 87.25 -19.5 87.25 C-19.5 70.09 -19.5 52.93 -19.5 35.25 C-22.47 35.25 -25.44 35.25 -28.5 35.25 C-28.5 31.62 -28.5 27.99 -28.5 24.25 C-25.53 24.25 -22.56 24.25 -19.5 24.25 C-19.561875 23.115625 -19.62375 21.98125 -19.6875 20.8125 C-19.65860932 15.38105275 -18.73444683 9.89537958 -15.140625 5.640625 C-10.52810268 1.598724 -6.05863293 -0.03403726 0 0 Z " fill="#B5CDBF" transform="translate(1525.5,643.75)"/>
<path d="M0 0 C4.29 0 8.58 0 13 0 C13 4.62 13 9.24 13 14 C16.96 14 20.92 14 25 14 C25 17.63 25 21.26 25 25 C21.04 25 17.08 25 13 25 C13.06881235 30.21491148 13.15674623 35.42901615 13.26245117 40.64331055 C13.29571464 42.41730812 13.32374218 44.1914119 13.34643555 45.96557617 C13.37995602 48.51527176 13.43226865 51.06399292 13.48828125 53.61328125 C13.49467117 54.40712723 13.5010611 55.20097321 13.50764465 56.01887512 C13.60174151 60.23834147 13.60174151 60.23834147 15.30151367 64.01245117 C18.09401017 65.63608899 20.85922326 65.17777982 24 65 C25.59138085 69.17737474 26.21278058 72.53160785 26 77 C18.82685532 78.26674683 12.64786087 78.28856947 6 75 C2.97012971 72.44962753 1.26094471 69.78283412 0 66 C-0.08567246 64.63407817 -0.11773647 63.26435142 -0.11352539 61.89575195 C-0.11344986 61.07512772 -0.11337433 60.25450348 -0.11329651 59.40901184 C-0.10813522 58.52767075 -0.10297394 57.64632965 -0.09765625 56.73828125 C-0.0962413 55.83248825 -0.09482635 54.92669525 -0.09336853 53.99345398 C-0.08777001 51.09976909 -0.07521781 48.20616151 -0.0625 45.3125 C-0.05748481 43.35091258 -0.05292193 41.38932394 -0.04882812 39.42773438 C-0.03780107 34.61845979 -0.02053747 29.809243 0 25 C-2.97 25 -5.94 25 -9 25 C-9 21.37 -9 17.74 -9 14 C-6.03 14 -3.06 14 0 14 C0 9.38 0 4.76 0 0 Z " fill="#B5CDBF" transform="translate(1447,654)"/>
<path d="M0 0 C4.29 0 8.58 0 13 0 C13 4.62 13 9.24 13 14 C16.96 14 20.92 14 25 14 C25 17.63 25 21.26 25 25 C21.04 25 17.08 25 13 25 C13.06872358 30.37562667 13.15661316 35.75046399 13.26245117 41.12548828 C13.29575026 42.9548265 13.32376657 44.7842687 13.34643555 46.61376953 C13.37989077 49.24036056 13.43219963 51.86599441 13.48828125 54.4921875 C13.49467117 55.31306854 13.5010611 56.13394958 13.50764465 56.97970581 C13.53942217 59.52614374 13.53942217 59.52614374 14 63 C17.6441774 65.4294516 19.71241272 65.16179575 24 65 C25.30492469 69.15944744 26.12019705 72.65036909 26 77 C18.9993541 78.06157335 12.527536 78.85737827 6.2421875 74.890625 C3.29885732 72.58714921 1.38940482 70.44076825 0 67 C-0.24050903 64.92449951 -0.24050903 64.92449951 -0.22705078 62.69042969 C-0.22682419 61.4295755 -0.22682419 61.4295755 -0.22659302 60.14324951 C-0.21627045 59.24519592 -0.20594788 58.34714233 -0.1953125 57.421875 C-0.1924826 56.4953009 -0.18965271 55.56872681 -0.18673706 54.61407471 C-0.17555611 51.65925091 -0.15045527 48.70473195 -0.125 45.75 C-0.11496751 43.74479605 -0.10584213 41.73958734 -0.09765625 39.734375 C-0.07562358 34.82279949 -0.04110795 29.91145141 0 25 C-2.97 25 -5.94 25 -9 25 C-9 21.37 -9 17.74 -9 14 C-6.03 14 -3.06 14 0 14 C0 9.38 0 4.76 0 0 Z " fill="#B5CDBF" transform="translate(1684,654)"/>
<path d="M0 0 C4.29 0 8.58 0 13 0 C13 4.95 13 9.9 13 15 C17.29 15 21.58 15 26 15 C26 18.3 26 21.6 26 25 C21.71 25 17.42 25 13 25 C13.09352117 30.21475559 13.19961178 35.42904614 13.31738281 40.64331055 C13.35567679 42.41732771 13.39052895 44.19142264 13.421875 45.96557617 C13.46751672 48.51509399 13.52551185 51.0640763 13.5859375 53.61328125 C13.59748871 54.40712723 13.60903992 55.20097321 13.62094116 56.01887512 C13.72355385 59.84323908 13.83064066 61.74596099 16 65 C18.19454681 65.57993699 18.19454681 65.57993699 20.625 65.6875 C22.06875 65.790625 23.5125 65.89375 25 66 C25.66 69.63 26.32 73.26 27 77 C19.7457462 78.81356345 13.31136323 78.98230693 6.69140625 75.2109375 C3.19232473 72.7058214 1.3449352 70.0348056 0 66 C-0.08567246 64.63407817 -0.11773647 63.26435142 -0.11352539 61.89575195 C-0.11344986 61.07512772 -0.11337433 60.25450348 -0.11329651 59.40901184 C-0.10813522 58.52767075 -0.10297394 57.64632965 -0.09765625 56.73828125 C-0.0962413 55.83248825 -0.09482635 54.92669525 -0.09336853 53.99345398 C-0.08777001 51.09976909 -0.07521781 48.20616151 -0.0625 45.3125 C-0.05748481 43.35091258 -0.05292193 41.38932394 -0.04882812 39.42773438 C-0.03780107 34.61845979 -0.02053747 29.809243 0 25 C-2.97 25 -5.94 25 -9 25 C-9 21.7 -9 18.4 -9 15 C-6.03 15 -3.06 15 0 15 C0 10.05 0 5.1 0 0 Z " fill="#B5CDBF" transform="translate(1896,750)"/>
<path d="M0 0 C3.96 0 7.92 0 12 0 C12 4.95 12 9.9 12 15 C16.29 15 20.58 15 25 15 C25 18.3 25 21.6 25 25 C20.71 25 16.42 25 12 25 C12.11874946 29.73241403 12.24302895 34.46463941 12.37231445 39.19677734 C12.41548205 40.80481067 12.45716901 42.41288448 12.49731445 44.02099609 C12.55546006 46.33964205 12.61902391 48.65808761 12.68359375 50.9765625 C12.70030624 51.68930328 12.71701874 52.40204407 12.73423767 53.13638306 C12.85260564 57.17344506 13.23768071 61.03376939 14 65 C17.3 65.33 20.6 65.66 24 66 C25.19287411 69.87684087 26 72.91621923 26 77 C20.37007653 78.87664116 14.814053 78.5650329 9.1875 76.8125 C5.2589571 74.57862267 2.05120701 72.10241403 0 68 C-0.08918777 66.61090696 -0.11759541 65.21763093 -0.11352539 63.82568359 C-0.11344986 62.96494232 -0.11337433 62.10420105 -0.11329651 61.21737671 C-0.10813522 60.28712677 -0.10297394 59.35687683 -0.09765625 58.3984375 C-0.0962413 57.44683746 -0.09482635 56.49523743 -0.09336853 55.51480103 C-0.08776012 52.46816903 -0.07520619 49.42160987 -0.0625 46.375 C-0.05748608 44.31250106 -0.05292299 42.25000097 -0.04882812 40.1875 C-0.03778796 35.12497183 -0.02051767 30.06249827 0 25 C-2.97 25 -5.94 25 -9 25 C-9 21.7 -9 18.4 -9 15 C-6.03 15 -3.06 15 0 15 C0 10.05 0 5.1 0 0 Z " fill="#B5CDBF" transform="translate(1623,750)"/>
<path d="M0 0 C0 3.96 0 7.92 0 12 C-1.155 11.938125 -2.31 11.87625 -3.5 11.8125 C-7.98117167 11.83633602 -12.22151758 12.47571973 -16 15 C-20.31662349 20.12396191 -20.60028879 24.20835619 -20.609375 30.7734375 C-20.62591125 31.6971817 -20.64244751 32.6209259 -20.65948486 33.57266235 C-20.70785236 36.5068433 -20.72931083 39.44050638 -20.75 42.375 C-20.77816909 44.37111965 -20.80809782 46.36721529 -20.83984375 48.36328125 C-20.91360839 53.24214485 -20.96325178 58.12072286 -21 63 C-25.29 63 -29.58 63 -34 63 C-34 42.21 -34 21.42 -34 0 C-29.71 0 -25.42 0 -21 0 C-20.67 1.98 -20.34 3.96 -20 6 C-19.34 5.21625 -18.68 4.4325 -18 3.625 C-12.45187512 -1.22960927 -7.00119958 -1.45858325 0 0 Z " fill="#B5CDBF" transform="translate(1435,668)"/>
<path d="M0 0 C0 4.29 0 8.58 0 13 C-1.711875 12.938125 -3.42375 12.87625 -5.1875 12.8125 C-10.80052753 12.8125 -13.51552336 13.8704486 -17.75 17.5 C-19.95872686 20.15047223 -20.13411897 22.79838058 -20.20532227 26.10424805 C-20.22526749 26.92487228 -20.24521271 27.74549652 -20.26576233 28.59098816 C-20.29083107 29.9129998 -20.29083107 29.9129998 -20.31640625 31.26171875 C-20.33718735 32.16751175 -20.35796844 33.07330475 -20.37937927 34.00654602 C-20.44476558 36.90012016 -20.50370904 39.79378507 -20.5625 42.6875 C-20.6056956 44.64909793 -20.64931023 46.61068668 -20.69335938 48.57226562 C-20.80043582 53.38141739 -20.90173414 58.19066046 -21 63 C-25.29 63 -29.58 63 -34 63 C-34 42.54 -34 22.08 -34 1 C-29.71 1 -25.42 1 -21 1 C-20.67 2.65 -20.34 4.3 -20 6 C-19.071875 5.195625 -18.14375 4.39125 -17.1875 3.5625 C-11.94701208 -0.9792562 -6.64653193 -0.07819449 0 0 Z " fill="#B5CDBF" transform="translate(1689,764)"/>
<path d="M0 0 C5.1669904 4.1028756 8.7762632 9.12506062 10.02734375 15.7109375 C10.685321 25.27691448 10.31529721 32.80855798 4.27734375 40.4609375 C-0.43220372 45.59223549 -5.90741634 48.37492174 -12.85546875 48.94921875 C-21.24632336 49.14129855 -28.49386126 48.61400837 -35.0390625 42.91015625 C-42.18360326 35.22865626 -43.61880938 28.82917516 -43.3828125 18.4453125 C-42.61039389 11.412625 -39.8195546 6.14459909 -34.72265625 1.2734375 C-24.84880447 -6.2383506 -10.41331758 -6.80474218 0 0 Z M-32.84765625 8.6484375 C-37.14080961 14.83562911 -37.80248397 20.3150979 -36.97265625 27.7109375 C-35.20896326 33.65338035 -31.99349627 37.22708933 -26.97265625 40.7109375 C-21.13714835 43.45478558 -14.86862868 43.86724635 -8.65625 42.0234375 C-3.00030346 39.44767437 0.21751519 35.81350075 3.33984375 30.4609375 C4.92259224 24.12994354 4.72500804 17.5624524 2.13671875 11.53125 C-0.50328043 7.19942035 -4.29234727 4.53242189 -8.78515625 2.3359375 C-18.09418471 0.5106378 -26.2758445 1.23359451 -32.84765625 8.6484375 Z " fill="#B5CDBF" transform="translate(2128.97265625,151.2890625)"/>
<path d="M0 0 C4.29 0 8.58 0 13 0 C13 20.79 13 41.58 13 63 C8.71 63 4.42 63 0 63 C0 42.21 0 21.42 0 0 Z " fill="#B5CDBF" transform="translate(1716,668)"/>
<path d="M0 0 C4.29 0 8.58 0 13 0 C13 20.79 13 41.58 13 63 C8.71 63 4.42 63 0 63 C0 42.21 0 21.42 0 0 Z " fill="#B5CDBF" transform="translate(1539,668)"/>
<path d="M0 0 C4.29 0 8.58 0 13 0 C13 20.79 13 41.58 13 63 C8.71 63 4.42 63 0 63 C0 42.21 0 21.42 0 0 Z " fill="#B5CDBF" transform="translate(1479,668)"/>
<path d="M0 0 C4.29 0 8.58 0 13 0 C13 20.46 13 40.92 13 62 C8.71 62 4.42 62 0 62 C0 41.54 0 21.08 0 0 Z " fill="#B5CDBF" transform="translate(1929,765)"/>
<path d="M0 0 C4.29 0 8.58 0 13 0 C13 20.46 13 40.92 13 62 C8.71 62 4.42 62 0 62 C0 41.54 0 21.08 0 0 Z " fill="#B5CDBF" transform="translate(1869,765)"/>
<path d="M0 0 C2.536875 -0.103125 5.07375 -0.20625 7.6875 -0.3125 C8.47729248 -0.35802002 9.26708496 -0.40354004 10.08081055 -0.45043945 C14.17855749 -0.5307468 15.62213104 -0.29439203 18.98828125 2.328125 C21 5 21 5 21.5 8.0625 C20.96248682 11.22038995 20.14978703 12.67106405 18 15 C18.99 16.485 18.99 16.485 20 18 C20.1953125 20.69921875 20.1953125 20.69921875 20.125 23.6875 C20.10695313 24.68136719 20.08890625 25.67523438 20.0703125 26.69921875 C20.04710938 27.45847656 20.02390625 28.21773437 20 29 C18.02 29 16.04 29 14 29 C14 25.7 14 22.4 14 19 C11.36 18.67 8.72 18.34 6 18 C6 21.63 6 25.26 6 29 C4.02 29 2.04 29 0 29 C0 19.43 0 9.86 0 0 Z M6 5 C6 7.64 6 10.28 6 13 C9.41656024 13.16677282 9.41656024 13.16677282 13 13 C13.66 12.34 14.32 11.68 15 11 C14.83492354 8.42459787 14.83492354 8.42459787 14 6 C11.29120665 4.64560332 8.99066732 4.93498549 6 5 Z " fill="#B5CDBF" transform="translate(2103,159)"/>
<path d="M0 0 C2.71604883 1.92982417 3.74692606 3.34200775 4.9375 6.4375 C5.01876251 9.76926305 3.92368819 11.33643174 2 14 C0.42077594 15.57922406 -1.19443874 15.207659 -3.375 15.25 C-4.16648437 15.27578125 -4.95796875 15.3015625 -5.7734375 15.328125 C-8.52340652 14.92286641 -9.33664071 14.18700944 -11 12 C-12.11278259 8.34371434 -12.31948363 6.68460779 -10.6875 3.1875 C-7.66275934 -0.73346012 -4.76575755 -0.41084117 0 0 Z " fill="#B5CDBF" transform="translate(1879,741)"/>
<path d="M0 0 C2.86268684 0.51622222 4.13595104 0.98335139 5.90625 3.34375 C6.46778595 7.76584561 6.70518062 10.06546101 4.34375 13.84375 C0.9824112 15.91226618 -1.21334911 15.82880011 -5.09375 15.34375 C-7.46875 14.28125 -7.46875 14.28125 -9.09375 12.34375 C-10.301394 8.26795151 -10.53985971 6.25536549 -8.65625 2.40625 C-5.55684152 -0.08839585 -3.87799695 -0.28940276 0 0 Z " fill="#B5CDBF" transform="translate(1547.09375,644.65625)"/>
<path d="M0 0 C2.5 1.5625 2.5 1.5625 4 4 C4.5625 7.5 4.5625 7.5 4 11 C1.4511805 13.9236459 -0.19515606 14.84909176 -4 15.5625 C-8.10389613 14.79301948 -9.53959272 13.32878632 -12 10 C-12.67064058 6.34873465 -12.48198314 4.76313998 -10.5 1.625 C-6.98922596 -0.65700312 -4.07529338 -0.81004807 0 0 Z " fill="#B5CDBF" transform="translate(1490,645)"/>
<path d="M0 0 C2.875 1.5625 2.875 1.5625 5 4 C5.63210717 7.93311127 5.60020266 10.02467068 3.5 13.4375 C0.46962931 15.33148168 -1.55830934 15.64334247 -5.08984375 15.4453125 C-7 15 -7 15 -9.5625 12.9375 C-11.44610971 9.08838451 -11.207644 7.07579849 -10 3 C-7.07633177 -0.35680426 -4.30565927 -0.61509418 0 0 Z " fill="#B5CDBF" transform="translate(1938,741)"/>
<path d="M0 0 C1.91015625 0.4453125 1.91015625 0.4453125 4.47265625 2.5078125 C6.35626596 6.35692799 6.11780025 8.36951401 4.91015625 12.4453125 C2.67789728 15.0082765 1.32964256 15.38283581 -2.02734375 15.8828125 C-5.9292469 15.32539776 -7.49958106 14.41649618 -10.08984375 11.4453125 C-10.72195092 7.51220123 -10.69004641 5.42064182 -8.58984375 2.0078125 C-5.55947306 0.11383082 -3.53153441 -0.19802997 0 0 Z " fill="#B5CDBF" transform="translate(1725.08984375,644.5546875)"/>
</svg>
